<?xml version="1.0" encoding="UTF-8"?>
<svg width="1680px" height="220px" viewBox="0 0 1680 220" version="1.1" xmlns="http://www.w3.org/2000/svg" xmlns:xlink="http://www.w3.org/1999/xlink">
    <!-- Generator: Sketch 55.1 (78136) - https://sketchapp.com -->
    <title>Rectangle</title>
    <desc>Created with Sketch.</desc>
    <g id="Page-1" stroke="none" stroke-width="1" fill="none" fill-rule="evenodd">
        <g id="Artboard-Copy-14" transform="translate(0.000000, -90.000000)" fill="#DA1E1D">
            <g id="-g-Group-5" transform="translate(0.000000, 90.000000)">
                <path d="M0,7.10542736e-14 L1680,7.10542736e-14 L1680,203.157895 C1240.77214,203.157895 998.860677,203.157895 954.265625,203.157895 C887.373047,203.157895 901.446899,196.87463 820.480469,203.157895 C739.514038,209.441159 750.571617,218.947368 682.980469,218.947368 C615.38932,218.947368 613.940789,203.157895 548.621094,203.157895 C483.301399,203.157895 483.397272,218.947368 419.355469,218.947368 C355.313666,218.947368 356.895921,203.157895 291.722656,203.157895 C226.549392,203.157895 216.076728,220 154.351562,220 C122.720463,220 90,203.157895 48,203.157895 C29.796875,203.157895 13.796875,203.157895 0,203.157895 L0,7.10542736e-14 Z" id="Rectangle"></path>
            </g>
        </g>
    </g>
</svg>