<?xml version="1.0" encoding="UTF-8"?>
<svg width="1680px" height="126px" viewBox="0 0 1680 126" version="1.1" xmlns="http://www.w3.org/2000/svg" xmlns:xlink="http://www.w3.org/1999/xlink">
    <!-- Generator: Sketch 55.1 (78136) - https://sketchapp.com -->
    <title>Group 3</title>
    <desc>Created with Sketch.</desc>
    <g id="Page-1" stroke="none" stroke-width="1" fill="none" fill-rule="evenodd">
        <g id="Artboard-Copy-27" transform="translate(0.000000, -184.000000)">
            <g id="Group-3" transform="translate(0.000000, 184.000000)">
                <path d="M1680,-8.52651283e-14 L1680,109.157895 C1659.33594,109.157895 1609.33594,109.157895 1530,109.157895 C1410.99609,109.157895 1019.77514,124.947368 977,124.947368 C910.107422,124.947368 901.446899,102.87463 820.480469,109.157895 C739.514038,115.441159 750.571617,124.947368 682.980469,124.947368 C615.38932,124.947368 613.940789,109.157895 548.621094,109.157895 C483.301399,109.157895 483.397272,124.947368 419.355469,124.947368 C355.313666,124.947368 356.895921,109.157895 291.722656,109.157895 C226.549392,109.157895 216.076728,126 154.351562,126 C122.720463,126 90,109.157895 48,109.157895 C29.796875,109.157895 13.796875,109.157895 0,109.157895 L0,-7.10542736e-14 L1680,-8.52651283e-14 Z" id="Combined-Shape" fill="#DA1E1D"></path>
                <g id="Group" transform="translate(546.000000, 6.000000)" fill="#000000">
                    <path d="M93.0967061,41.4789688 C101.676598,41.3478064 110.257451,41.2645862 118.838786,41.2614202 C120.385869,41.2609679 120.388273,38.9995477 118.838786,39 C88.1861477,39.0108548 57.5488987,40.0542741 26.9034743,40.5214835 C18.3235826,40.6521936 9.7427291,40.7358661 1.1613947,40.7385798 C-0.385688506,40.7390321 -0.388573958,43.0004523 1.1613947,43 C31.8140328,42.9895975 62.4508008,41.9457259 93.0967061,41.4789688 Z" id="Fill-1271"></path>
                    <path d="M105.365922,22.8529472 C105.766716,23.2496191 106.16703,23.646291 106.567344,24.0434391 C107.749063,14.9366521 103.530148,4.17698599 94.2388282,0.89837121 C86.3358718,-1.89023709 76.3198537,1.97981408 73.7848525,10.1961132 C74.516759,10.1008738 75.2486655,10.0061107 75.980572,9.91134752 C72.81987,2.51220207 63.6890599,-0.882128522 56.1056819,1.23170895 C47.1911278,3.7174561 41.9447566,12.7447183 41.2594652,21.4381666 C41.8620987,21.0957811 42.4647322,20.7529194 43.0673656,20.410534 C39.2165666,18.3943168 34.8164773,17.838119 30.5682478,18.8171796 C28.3244713,19.3338531 26.1518191,20.2819608 24.2771196,21.6105498 C22.3586883,22.9705678 21.1755276,25.0548811 19.3258177,26.4206134 C17.0863664,28.0739686 13.7329562,27.0177642 11.0826185,27.6458677 C9.04740894,28.1282551 7.15925353,29.1311255 5.53348876,30.4211425 C2.03158281,33.1997507 -0.067542376,37.3955204 0.0016595531,41.8503412 C0.0256880007,43.3808377 2.42853276,43.3855996 2.40450431,41.8503412 C2.33770523,37.5450462 4.67375091,33.6016608 8.35250624,31.3416309 C10.2113469,30.1992348 12.2758712,29.6563705 14.4518874,29.669704 C16.5630268,29.6820851 18.5814164,29.8635161 20.4042144,28.6125472 C21.9184872,27.5734858 22.8738583,25.9667979 24.2045537,24.7324959 C25.7481412,23.3020008 27.6098653,22.2296056 29.6109544,21.5619778 C33.6587867,20.2105313 38.0723319,20.4862492 41.8548902,22.4662754 C42.6997304,22.9086622 43.5907052,22.3477024 43.66231,21.4381666 C44.2649435,13.7933036 48.9110841,5.73081606 56.744358,3.52792979 C63.3959129,1.65695267 71.1556598,4.67556401 73.9059559,11.1132682 C74.3346234,12.1166148 75.8291928,11.7118475 76.1016754,10.8289787 C78.3416073,3.56935891 87.7021293,0.541699827 94.3954937,3.51316769 C102.136979,6.94987979 105.1785,16.2314311 104.164499,24.0434391 C104.088089,24.6358279 104.779628,25.2977414 105.365922,25.2339311 C112.432688,24.4610637 117.681943,34.0178567 117.595921,40.0198409 C117.573815,41.5527183 119.97666,41.5531945 119.998766,40.0198409 C120.101608,32.8245076 113.765786,21.9343636 105.365922,22.8529472 Z" id="Fill-1273"></path>
                </g>
                <g id="1189178" transform="translate(431.000000, 77.667969) rotate(-15.000000) translate(-431.000000, -77.667969) translate(396.000000, 48.000000)" fill="#000000" fill-rule="nonzero">
                    <path d="M14.7617969,34.4883984 C14.5073633,34.2339648 14.1558594,34.0875391 13.7947852,34.0875391 C13.4350781,34.0875391 13.0820703,34.2339648 12.8277734,34.4883984 C12.5733398,34.7426953 12.4270508,35.0955664 12.4270508,35.4552734 C12.4270508,35.8164844 12.5734766,36.1679883 12.8277734,36.4236523 C13.082207,36.6780859 13.4350781,36.8230078 13.7947852,36.8230078 C14.1544922,36.8230078 14.5075,36.6780859 14.7617969,36.4236523 C15.0162305,36.1678516 15.1625195,35.8164844 15.1625195,35.4552734 C15.1625195,35.0955664 15.0162305,34.7426953 14.7617969,34.4883984 Z" id="Path"></path>
                    <path d="M27.6605273,34.4883984 C27.4062305,34.2339648 27.0533594,34.0875391 26.6935156,34.0875391 C26.3338086,34.0875391 25.9808008,34.2339648 25.7265039,34.4883984 C25.4720703,34.7426953 25.3257812,35.0955664 25.3257812,35.4552734 C25.3257812,35.8164844 25.4720703,36.1679883 25.7265039,36.4236523 C25.9809375,36.6780859 26.3338086,36.8230078 26.6935156,36.8230078 C27.0532227,36.8230078 27.4062305,36.6780859 27.6605273,36.4236523 C27.9149609,36.1678516 28.06125,35.8149805 28.06125,35.4552734 C28.06125,35.0955664 27.9149609,34.7426953 27.6605273,34.4883984 Z" id="Path"></path>
                    <path d="M25.1516016,41.9993164 C24.4217969,41.8038086 23.672168,42.2380273 23.4770703,42.9676953 C23.0861914,44.4308594 21.756875,45.4529687 20.2442188,45.4529687 C18.7316992,45.4529687 17.4023828,44.4308594 17.0113672,42.9676953 C16.8164062,42.2377539 16.0667773,41.8035352 15.3368359,41.9993164 C14.6070313,42.1944141 14.1734961,42.9439062 14.368457,43.6738477 C15.0785742,46.3320703 17.4948047,48.1887109 20.2443555,48.1887109 C22.9937695,48.1887109 25.41,46.3320703 26.1201172,43.6738477 C26.3149414,42.944043 25.8812695,42.1942773 25.1516016,41.9993164 Z" id="Path"></path>
                    <path d="M35.016543,0.136035156 C34.2610352,0.136035156 33.6486719,0.748398437 33.6486719,1.50390625 L33.6486719,10.1874609 C33.6486719,10.9429688 34.2610352,11.555332 35.016543,11.555332 C35.7720508,11.555332 36.3844141,10.9429688 36.3844141,10.1874609 L36.3844141,1.50390625 C36.3844141,0.748398437 35.7720508,0.136035156 35.016543,0.136035156 Z" id="Path"></path>
                    <path d="M35.9841016,14.0540039 C35.7295313,13.7982031 35.3766602,13.6532812 35.0170898,13.6532812 C34.6560156,13.6532812 34.304375,13.7983398 34.0487109,14.0540039 C33.7942773,14.3084375 33.6493555,14.6613086 33.6493555,15.0210156 C33.6493555,15.3807227 33.7944141,15.7337305 34.0487109,15.9880273 C34.3045117,16.2424609 34.6560156,16.38875 35.0170898,16.38875 C35.3767969,16.38875 35.7298047,16.2424609 35.9841016,15.9880273 C36.2383984,15.7335937 36.3848242,15.3807227 36.3848242,15.0210156 C36.3848242,14.6613086 36.2383984,14.3084375 35.9841016,14.0540039 Z" id="Path"></path>
                    <path d="M26.6809375,12.5712891 L23.1888672,9.08222656 C22.6545703,8.54833984 21.7883203,8.54861328 21.2544336,9.08304688 C20.7205469,9.61748047 20.7208203,10.483457 21.2552539,11.0174805 L24.7473242,14.5066797 C25.0143359,14.7735547 25.3641992,14.9068555 25.7140625,14.9068555 C26.0643359,14.9068555 26.4147461,14.7730078 26.6817578,14.5058594 C27.2156445,13.9712891 27.2153711,13.1053125 26.6809375,12.5712891 Z" id="Path"></path>
                    <path d="M48.7813867,9.08578125 C48.2469531,8.55175781 47.3808398,8.55216797 46.8469531,9.08646484 L43.1343555,12.8020703 C42.600332,13.3365039 42.6007422,14.2026172 43.1350391,14.7365039 C43.4020508,15.0035156 43.7519141,15.1368164 44.1017773,15.1368164 C44.4520508,15.1368164 44.8023242,15.0031055 45.0693359,14.7358203 L48.7819336,11.0202148 C49.3160937,10.4857812 49.3156836,9.61966797 48.7813867,9.08578125 Z" id="Path"></path>
                    <path d="M69.3079297,33.7066406 C66.4187891,22.924043 55.2961719,16.5025 44.5138477,19.3919141 C40.8131445,20.3835352 37.5437891,22.3551562 34.9901562,25.085293 C31.1694141,21.0159961 25.8816797,18.7113281 20.2442187,18.7113281 C9.08154297,18.7113281 0,27.7930078 0,38.9556836 C0,50.1183594 9.08154297,59.1999023 20.2442187,59.1999023 C25.8870117,59.1999023 31.1832227,56.888125 35.005332,52.8089844 C38.7899805,56.8218164 44.1273437,59.1929297 49.7581055,59.1929297 C51.4874609,59.1929297 53.2451172,58.9691211 54.9930664,58.5008594 C65.7753906,55.611582 72.1970703,44.4888281 69.3079297,33.7066406 Z M20.2442188,56.4641602 C10.5898242,56.4641602 2.73560547,48.6098047 2.73560547,38.9555469 C2.73560547,29.3012891 10.5898242,21.4469336 20.2442188,21.4469336 C25.2419727,21.4469336 29.9226758,23.5413281 33.2445313,27.2276758 C32.8816797,27.740918 32.5396094,28.2728906 32.2213281,28.8240039 C29.5175781,33.5070312 28.7993945,38.9626562 30.1989844,44.1857227 C30.8411523,46.5828125 31.890332,48.7640234 33.2521875,50.675625 C29.9296484,54.3667578 25.24375,56.4641602 20.2442188,56.4641602 Z M54.285,55.8583594 C44.9598242,58.3563477 35.3401562,52.8031055 32.8414844,43.4779297 C31.6311133,38.9606055 32.2522266,34.242168 34.5905273,30.1921484 C35.0220117,29.4448437 35.5025781,28.7371875 36.0274414,28.0717773 C36.0501367,28.0456641 36.0711914,28.0185937 36.0916992,27.9911133 C38.4063477,25.0922656 41.5716602,23.0125 45.2217773,22.0344141 C46.7340234,21.6293164 48.2532422,21.4358594 49.7493555,21.4358594 C57.4788867,21.4358594 64.5717188,26.6017773 66.6651562,34.414707 C69.1641016,43.7400195 63.6101758,53.3595508 54.285,55.8583594 Z" id="Shape"></path>
                    <path d="M45.7467773,36.2645117 C45.3234961,34.6843164 43.694082,33.7428711 42.1132031,34.1665625 C40.5330078,34.5901172 39.5919727,36.2199414 40.0153906,37.8001367 C40.1791797,38.4112695 40.7317969,38.8144531 41.3358203,38.8144531 C41.4528516,38.8144531 41.572207,38.7992773 41.6906055,38.7674219 C42.4204102,38.5717773 42.8533984,37.8220117 42.6577539,37.092207 C42.6248047,36.9691602 42.6980859,36.8420117 42.8211328,36.8090625 C42.8974219,36.7888281 42.9586719,36.8104297 42.996543,36.832168 C43.0342773,36.854043 43.0837695,36.8961523 43.1042773,36.9724414 C43.2997852,37.7021094 44.0495508,38.1353711 44.7794922,37.9395898 C45.5094336,37.7442188 45.9422852,36.9943164 45.7467773,36.2645117 Z" id="Path"></path>
                    <path d="M58.1285742,32.9467578 C57.9233594,32.1812695 57.4325391,31.5415625 56.7462109,31.1452148 C56.0598828,30.7491406 55.2603516,30.6437305 54.495,30.8489453 C53.7295117,31.0540234 53.089668,31.5448438 52.6935937,32.2311719 C52.2973828,32.9175 52.1919727,33.7168945 52.3971875,34.4825195 C52.5609766,35.0936523 53.1135937,35.4966992 53.7176172,35.4966992 C53.8346484,35.4965625 53.9540039,35.4815234 54.0725391,35.449668 C54.802207,35.2540234 55.2351953,34.5041211 55.0396875,33.7743164 C55.0193164,33.6980273 55.040918,33.6369141 55.062793,33.599043 C55.084668,33.5611719 55.1266406,33.5118164 55.2030664,33.4914453 C55.2793555,33.4710742 55.3407422,33.4928125 55.3784766,33.5145508 C55.4162109,33.5362891 55.4655664,33.5783984 55.4860742,33.6548242 C55.681582,34.3844922 56.4313477,34.8176172 57.1612891,34.6219727 C57.8910937,34.4264648 58.324082,33.6765625 58.1285742,32.9467578 Z" id="Path"></path>
                    <path d="M56.9302344,41.5296875 C56.7345898,40.8000195 55.9845508,40.3667578 55.2548828,40.5624023 C54.5250781,40.7580469 54.0922266,41.5078125 54.2877344,42.2376172 C54.753125,43.9746289 53.7185742,45.7666016 51.9815625,46.2319922 C51.1399219,46.4575781 50.2610938,46.3416406 49.5068164,45.9061914 C48.7522656,45.4704688 48.2126367,44.7673242 47.9873242,43.9258203 C47.7916797,43.1961523 47.0417773,42.7626172 46.3119727,42.9586719 C45.5823047,43.1543164 45.1493164,43.9042187 45.3448242,44.6338867 C45.7594922,46.1812695 46.7517969,47.4744922 48.139082,48.2753906 C49.0630273,48.8088672 50.0886914,49.0814844 51.1278906,49.0814844 C51.6489258,49.0814844 52.1732422,49.013125 52.6899023,48.8744922 C55.8837891,48.0186328 57.785957,44.7235742 56.9302344,41.5296875 Z" id="Path"></path>
                </g>
            </g>
        </g>
    </g>
</svg>