<?xml version="1.0" encoding="UTF-8"?>
<svg width="202px" height="57px" viewBox="0 0 202 57" version="1.1" xmlns="http://www.w3.org/2000/svg" xmlns:xlink="http://www.w3.org/1999/xlink">
    <!-- Generator: Sketch 55.1 (78136) - https://sketchapp.com -->
    <title>Rectangle</title>
    <desc>Created with Sketch.</desc>
    <g id="Page-1" stroke="none" stroke-width="1" fill="none" fill-rule="evenodd">
        <g id="Artboard-Copy-29" transform="translate(-386.000000, -911.000000)" fill="#DA1E1D">
            <g id="-g-Group-13" transform="translate(386.000000, 911.000000)">
                <g id="Group-14">
                    <path d="M28.5426803,1.58245313 C36.9153307,1.66477048 45.5954301,2.1845093 54.5829787,3.14166959 C84.0826439,6.28333918 98.4591493,4.11665085 115.588263,3.14166959 C132.717376,2.16668833 143.608286,0 162.975223,0 C166.537234,0 170.106624,0.0797058608 173.683396,0.239117582 C189.522125,0.945025667 202,13.9914093 202,29.8458611 C202,44.782686 189.891311,56.891375 174.954486,56.891375 C174.735976,56.891375 174.517473,56.8887268 174.299026,56.8834618 C171.206637,56.8084944 168.085831,56.697358 164.936607,56.5500526 C145.697872,55.6501578 136.785083,54.6165772 114.061559,54.6165772 C91.3380355,54.6165772 93.4579212,55.6501578 62.5989583,56.5500526 C50.8397963,56.8929678 38.9846847,57.0398754 27.0336234,56.9907753 C12.0854332,56.9293648 1.83064077e-15,44.7941774 0,29.8458611 C1.64101312e-15,14.2356414 12.6545834,1.58105801 28.2648031,1.58105801 C28.3574306,1.58105801 28.4500576,1.58151334 28.5426803,1.58245313 Z" id="Rectangle" transform="translate(101.000000, 28.500000) scale(-1, 1) translate(-101.000000, -28.500000) "></path>
                </g>
            </g>
        </g>
    </g>
</svg>