<?xml version="1.0" encoding="UTF-8"?>
<svg width="130px" height="35px" viewBox="0 0 130 35" version="1.1" xmlns="http://www.w3.org/2000/svg" xmlns:xlink="http://www.w3.org/1999/xlink">
    <!-- Generator: Sketch 55.1 (78136) - https://sketchapp.com -->
    <title>Rectangle</title>
    <desc>Created with Sketch.</desc>
    <g id="Page-1" stroke="none" stroke-width="1" fill="none" fill-rule="evenodd">
        <g id="Artboard-Copy-27" transform="translate(-178.000000, -490.000000)" fill="#FFFFFF">
            <g id="-g-History" transform="translate(0.000000, 355.000000)">
                <g id="Group-11" transform="translate(30.000000, 0.000000)">
                    <g id="Group-12" transform="translate(148.000000, 135.000000)">
                        <path d="M16.3819231,2.07067695 C48.7108247,2.32071721 68.0463456,2.27352335 74.3884859,1.92909536 C85.4121727,1.33042266 92.4211741,0 104.885045,0 C107.489856,0 110.1008,0.0631919378 112.717877,0.189575813 C122.394486,0.656857962 130,8.63852096 130,18.3264059 C130,27.5076324 122.557145,34.9504871 113.375919,34.9504871 C113.265555,34.9504871 113.155194,34.949388 113.044852,34.9472172 C110.769706,34.901899 108.470529,34.8273988 106.147321,34.7237165 C93.7659574,34.1711495 88.0300042,33.5364948 73.4059541,33.5364948 C58.7819041,33.5364948 60.1461869,34.1711495 40.2864583,34.7237165 C32.4507543,34.9417332 24.5488507,35.0307213 16.5807477,34.990681 C7.41000682,34.9445988 -5.57203128e-14,27.4972626 -5.68434189e-14,18.3264059 C-5.79429128e-14,9.34835624 7.27814731,2.07020894 16.256197,2.07020894 C16.2981061,2.07020894 16.3400151,2.070371 16.3819231,2.07067695 Z" id="Rectangle"></path>
                    </g>
                </g>
            </g>
        </g>
    </g>
</svg>