<?xml version="1.0" encoding="UTF-8"?>
<svg width="401px" height="81px" viewBox="0 0 401 81" version="1.1" xmlns="http://www.w3.org/2000/svg" xmlns:xlink="http://www.w3.org/1999/xlink">
    <!-- Generator: Sketch 55.1 (78136) - https://sketchapp.com -->
    <title>Rectangle</title>
    <desc>Created with Sketch.</desc>
    <g id="Page-1" stroke="none" stroke-width="1" fill="none" fill-rule="evenodd">
        <g id="Artboard-Copy-15" transform="translate(-663.000000, -308.000000)" fill="#DA1E1D">
            <g id="-g-Group-8" transform="translate(432.000000, 227.000000)">
                <path d="M269.747581,83.8389835 C291.81442,83.3866838 315.017,84.0768096 339.355319,85.9093608 C397.916536,90.3187217 426.456034,87.2777556 460.459868,85.9093608 C494.463702,84.5409661 516.083775,81.5 554.530022,81.5 C567.750133,81.5 581.021455,81.8910202 594.343988,82.6730606 C615.488533,83.9142569 632,101.423379 632,122.604323 L632,123.388928 C632,144.435997 614.937979,161.498018 593.89091,161.498018 C593.86613,161.498018 593.841351,161.497994 593.816572,161.497952 C582.226982,161.475345 570.429345,161.265526 558.423661,160.868495 C520.231915,159.605485 502.538705,158.154845 457.429135,158.154845 C412.319566,158.154845 416.527854,159.605485 355.268229,160.868495 C326.699156,161.457513 297.844791,161.634489 268.705133,161.399423 C247.832144,161.23107 231,144.262596 231,123.388928 C231,101.857453 248.220628,84.2802401 269.747581,83.8389835 Z" id="Rectangle" transform="translate(431.500000, 121.500000) scale(-1, 1) translate(-431.500000, -121.500000) "></path>
            </g>
        </g>
    </g>
</svg>