<?xml version="1.0" encoding="UTF-8"?>
<svg width="210px" height="37px" viewBox="0 0 210 37" version="1.1" xmlns="http://www.w3.org/2000/svg" xmlns:xlink="http://www.w3.org/1999/xlink">
    <!-- Generator: Sketch 55.1 (78136) - https://sketchapp.com -->
    <title>Rectangle</title>
    <desc>Created with Sketch.</desc>
    <g id="Page-1" stroke="none" stroke-width="1" fill="none" fill-rule="evenodd">
        <g id="Artboard-Copy-14" transform="translate(-293.000000, -190.000000)" fill="#FFC300">
            <g id="-g-Group-5" transform="translate(0.000000, 90.000000)">
                <path d="M310.208049,102.667234 C321.733034,102.967379 334.219674,103.555964 347.667969,104.43299 C378.335937,106.43299 395.358522,103.053667 413.166016,102.43299 C430.97351,101.812313 442.295743,100.43299 462.429687,100.43299 C470.142832,100.43299 477.889265,100.653128 485.668985,101.093406 C495.395084,101.643857 503,109.691326 503,119.43299 C503,128.985897 495.255839,136.730058 485.702932,136.730058 C485.674164,136.730058 485.645397,136.729986 485.61663,136.72985 C479.791252,136.700784 472.741958,136.601831 464.46875,136.43299 C434.48801,135.821138 428.623465,134.43299 405,134.43299 C381.376535,134.43299 390.159225,135.860113 358.078125,136.43299 C342.244802,136.715728 326.244151,136.789152 310.076174,136.653262 C300.622136,136.573829 293,128.887361 293,119.43299 C293,110.170391 300.50882,102.661571 309.771419,102.661571 C309.91698,102.661571 310.062536,102.663466 310.208049,102.667234 Z" id="Rectangle"></path>
            </g>
        </g>
    </g>
</svg>