<?xml version="1.0" encoding="UTF-8"?>
<svg width="583px" height="858px" viewBox="0 0 583 858" version="1.1" xmlns="http://www.w3.org/2000/svg" xmlns:xlink="http://www.w3.org/1999/xlink">
    <!-- Generator: Sketch 55.1 (78136) - https://sketchapp.com -->
    <title>Combined Shape</title>
    <desc>Created with Sketch.</desc>
    <g id="Page-1" stroke="none" stroke-width="1" fill="none" fill-rule="evenodd">
        <g id="Artboard-Copy-13" transform="translate(-503.000000, -130.000000)" fill="#FFFFFF">
            <g id="Group" transform="translate(503.000000, 130.000000)">
                <path d="M0,-5.68434189e-14 L583,-5.68434189e-14 L583,858 L0,858 L0,-5.68434189e-14 Z M83,25 C87.418278,25 91,21.418278 91,17 C91,12.581722 87.418278,9 83,9 C78.581722,9 75,12.581722 75,17 C75,21.418278 78.581722,25 83,25 Z M53,25 C57.418278,25 61,21.418278 61,17 C61,12.581722 57.418278,9 53,9 C48.581722,9 45,12.581722 45,17 C45,21.418278 48.581722,25 53,25 Z M23,25 C27.418278,25 31,21.418278 31,17 C31,12.581722 27.418278,9 23,9 C18.581722,9 15,12.581722 15,17 C15,21.418278 18.581722,25 23,25 Z M113,25 C117.418278,25 121,21.418278 121,17 C121,12.581722 117.418278,9 113,9 C108.581722,9 105,12.581722 105,17 C105,21.418278 108.581722,25 113,25 Z M143,25 C147.418278,25 151,21.418278 151,17 C151,12.581722 147.418278,9 143,9 C138.581722,9 135,12.581722 135,17 C135,21.418278 138.581722,25 143,25 Z M173,25 C177.418278,25 181,21.418278 181,17 C181,12.581722 177.418278,9 173,9 C168.581722,9 165,12.581722 165,17 C165,21.418278 168.581722,25 173,25 Z M203,25 C207.418278,25 211,21.418278 211,17 C211,12.581722 207.418278,9 203,9 C198.581722,9 195,12.581722 195,17 C195,21.418278 198.581722,25 203,25 Z M233,25 C237.418278,25 241,21.418278 241,17 C241,12.581722 237.418278,9 233,9 C228.581722,9 225,12.581722 225,17 C225,21.418278 228.581722,25 233,25 Z M263,25 C267.418278,25 271,21.418278 271,17 C271,12.581722 267.418278,9 263,9 C258.581722,9 255,12.581722 255,17 C255,21.418278 258.581722,25 263,25 Z M293,25 C297.418278,25 301,21.418278 301,17 C301,12.581722 297.418278,9 293,9 C288.581722,9 285,12.581722 285,17 C285,21.418278 288.581722,25 293,25 Z M323,25 C327.418278,25 331,21.418278 331,17 C331,12.581722 327.418278,9 323,9 C318.581722,9 315,12.581722 315,17 C315,21.418278 318.581722,25 323,25 Z M353,25 C357.418278,25 361,21.418278 361,17 C361,12.581722 357.418278,9 353,9 C348.581722,9 345,12.581722 345,17 C345,21.418278 348.581722,25 353,25 Z M383,25 C387.418278,25 391,21.418278 391,17 C391,12.581722 387.418278,9 383,9 C378.581722,9 375,12.581722 375,17 C375,21.418278 378.581722,25 383,25 Z M413,25 C417.418278,25 421,21.418278 421,17 C421,12.581722 417.418278,9 413,9 C408.581722,9 405,12.581722 405,17 C405,21.418278 408.581722,25 413,25 Z M443,25 C447.418278,25 451,21.418278 451,17 C451,12.581722 447.418278,9 443,9 C438.581722,9 435,12.581722 435,17 C435,21.418278 438.581722,25 443,25 Z M473,25 C477.418278,25 481,21.418278 481,17 C481,12.581722 477.418278,9 473,9 C468.581722,9 465,12.581722 465,17 C465,21.418278 468.581722,25 473,25 Z M503,25 C507.418278,25 511,21.418278 511,17 C511,12.581722 507.418278,9 503,9 C498.581722,9 495,12.581722 495,17 C495,21.418278 498.581722,25 503,25 Z M533,25 C537.418278,25 541,21.418278 541,17 C541,12.581722 537.418278,9 533,9 C528.581722,9 525,12.581722 525,17 C525,21.418278 528.581722,25 533,25 Z M563,25 C567.418278,25 571,21.418278 571,17 C571,12.581722 567.418278,9 563,9 C558.581722,9 555,12.581722 555,17 C555,21.418278 558.581722,25 563,25 Z M20.8745902,-5.68434189e-14 L25.3748742,-5.68434189e-14 L25.3748742,9.3608919 C24.6068713,9.1202973 23.8152466,9 23,9 C22.2796529,9 21.571183,9.09509982 20.8745902,9.28529947 L20.8745902,-5.68434189e-14 Z M50.8745902,-7.63833441e-14 L55.3748742,-7.63833441e-14 L55.3748742,9.3608919 C54.6068713,9.1202973 53.8152466,9 53,9 C52.2796529,9 51.571183,9.09509982 50.8745902,9.28529947 L50.8745902,-7.63833441e-14 Z M80.8745902,-7.63833441e-14 L85.3748742,-7.63833441e-14 L85.3748742,9.3608919 C84.6068713,9.1202973 83.8152466,9 83,9 C82.2796529,9 81.571183,9.09509982 80.8745902,9.28529947 L80.8745902,-7.63833441e-14 Z M110.87459,-7.63833441e-14 L115.374874,-7.63833441e-14 L115.374874,9.3608919 C114.606871,9.1202973 113.815247,9 113,9 C112.279653,9 111.571183,9.09509982 110.87459,9.28529947 L110.87459,-7.63833441e-14 Z M140.87459,-7.63833441e-14 L145.374874,-7.63833441e-14 L145.374874,9.3608919 C144.606871,9.1202973 143.815247,9 143,9 C142.279653,9 141.571183,9.09509982 140.87459,9.28529947 L140.87459,-7.63833441e-14 Z M170.87459,-7.63833441e-14 L175.374874,-7.63833441e-14 L175.374874,9.3608919 C174.606871,9.1202973 173.815247,9 173,9 C172.279653,9 171.571183,9.09509982 170.87459,9.28529947 L170.87459,-7.63833441e-14 Z M200.87459,-7.63833441e-14 L205.374874,-7.63833441e-14 L205.374874,9.3608919 C204.606871,9.1202973 203.815247,9 203,9 C202.279653,9 201.571183,9.09509982 200.87459,9.28529947 L200.87459,-7.63833441e-14 Z M230.87459,-7.63833441e-14 L235.374874,-7.63833441e-14 L235.374874,9.3608919 C234.606871,9.1202973 233.815247,9 233,9 C232.279653,9 231.571183,9.09509982 230.87459,9.28529947 L230.87459,-7.63833441e-14 Z M260.87459,-7.63833441e-14 L265.374874,-7.63833441e-14 L265.374874,9.3608919 C264.606871,9.1202973 263.815247,9 263,9 C262.279653,9 261.571183,9.09509982 260.87459,9.28529947 L260.87459,-7.63833441e-14 Z M290.87459,-7.63833441e-14 L295.374874,-7.63833441e-14 L295.374874,9.3608919 C294.606871,9.1202973 293.815247,9 293,9 C292.279653,9 291.571183,9.09509982 290.87459,9.28529947 L290.87459,-7.63833441e-14 Z M320.87459,-7.63833441e-14 L325.374874,-7.63833441e-14 L325.374874,9.3608919 C324.606871,9.1202973 323.815247,9 323,9 C322.279653,9 321.571183,9.09509982 320.87459,9.28529947 L320.87459,-7.63833441e-14 Z M350.87459,-7.63833441e-14 L355.374874,-7.63833441e-14 L355.374874,9.3608919 C354.606871,9.1202973 353.815247,9 353,9 C352.279653,9 351.571183,9.09509982 350.87459,9.28529947 L350.87459,-7.63833441e-14 Z M380.87459,-7.63833441e-14 L385.374874,-7.63833441e-14 L385.374874,9.3608919 C384.606871,9.1202973 383.815247,9 383,9 C382.279653,9 381.571183,9.09509982 380.87459,9.28529947 L380.87459,-7.63833441e-14 Z M410.87459,-7.63833441e-14 L415.374874,-7.63833441e-14 L415.374874,9.3608919 C414.606871,9.1202973 413.815247,9 413,9 C412.279653,9 411.571183,9.09509982 410.87459,9.28529947 L410.87459,-7.63833441e-14 Z M440.87459,-7.63833441e-14 L445.374874,-7.63833441e-14 L445.374874,9.3608919 C444.606871,9.1202973 443.815247,9 443,9 C442.279653,9 441.571183,9.09509982 440.87459,9.28529947 L440.87459,-7.63833441e-14 Z M470.87459,-7.63833441e-14 L475.374874,-7.63833441e-14 L475.374874,9.3608919 C474.606871,9.1202973 473.815247,9 473,9 C472.279653,9 471.571183,9.09509982 470.87459,9.28529947 L470.87459,-7.63833441e-14 Z M500.87459,-7.63833441e-14 L505.374874,-7.63833441e-14 L505.374874,9.3608919 C504.606871,9.1202973 503.815247,9 503,9 C502.279653,9 501.571183,9.09509982 500.87459,9.28529947 L500.87459,-7.63833441e-14 Z M530.87459,-7.63833441e-14 L535.374874,-7.63833441e-14 L535.374874,9.3608919 C534.606871,9.1202973 533.815247,9 533,9 C532.279653,9 531.571183,9.09509982 530.87459,9.28529947 L530.87459,-7.63833441e-14 Z M560.87459,-7.63833441e-14 L565.374874,-7.63833441e-14 L565.374874,9.3608919 C564.606871,9.1202973 563.815247,9 563,9 C562.279653,9 561.571183,9.09509982 560.87459,9.28529947 L560.87459,-7.63833441e-14 Z" id="Combined-Shape"></path>
            </g>
        </g>
    </g>
</svg>