<?xml version="1.0" encoding="UTF-8"?>
<svg width="99px" height="117px" viewBox="0 0 99 117" version="1.1" xmlns="http://www.w3.org/2000/svg" xmlns:xlink="http://www.w3.org/1999/xlink">
    <!-- Generator: Sketch 55.1 (78136) - https://sketchapp.com -->
    <title>Group 14</title>
    <desc>Created with Sketch.</desc>
    <g id="Page-1" stroke="none" stroke-width="1" fill="none" fill-rule="evenodd">
        <g id="Artboard-Copy-16" transform="translate(-44.000000, -873.000000)" fill="#000000">
            <g id="Group-14" transform="translate(44.000000, 873.000000)">
                <path d="M6.22877832,111.292042 L6.22877832,46.0148989 C6.22877832,44.8113695 4.35230773,44.8094157 4.35230773,46.0148989 L4.35230773,111.271853 C4.97779793,111.278365 5.60328813,111.283575 6.22877832,111.292042" id="Fill-133"></path>
                <path d="M22.2208045,24.9230459 C14.9181901,31.0852728 7.61492211,37.2474997 0.31165414,43.4090754 C-0.611221677,44.1879829 0.721458062,45.5048317 1.63845153,44.7311342 C8.84760185,38.6483611 16.0560986,32.565588 23.2652489,26.4834661 C22.9168829,25.9637602 22.5691705,25.4434031 22.2208045,24.9230459" id="Fill-137"></path>
                <path d="M51.4806737,0.235258127 C45.2198894,5.51763208 38.9591051,10.800006 32.6983208,16.08238 C33.0460332,16.6027371 33.3943992,17.1230943 33.7421117,17.6434514 L52.8074711,1.55731695 C53.730347,0.778409387 52.3970136,-0.538439352 51.4806737,0.235258127" id="Fill-139"></path>
                <path d="M52.4492358,2.77126653 C68.1864907,16.6450691 83.2243992,31.2782413 97.5165561,46.6278001 C98.2799548,47.4477371 99.5080594,46.2188085 98.7466215,45.4014766 C84.4557718,30.0519178 69.4172097,15.4187455 53.6799548,1.544943 C52.8440071,0.80771611 51.6080594,2.02948082 52.4492358,2.77126653" id="Fill-141"></path>
                <path d="M94.1941378,152.997462 C94.1941378,154.113071 95.9346607,154.115025 95.9346607,152.997462 L95.9346607,49.2588275 C95.9346607,48.1432182 94.1941378,48.1412644 94.1941378,49.2588275 L94.1941378,152.997462 Z" id="Fill-143"></path>
            </g>
        </g>
    </g>
</svg>