<?xml version="1.0" encoding="UTF-8"?>
<svg width="360px" height="135px" viewBox="0 0 360 135" version="1.1" xmlns="http://www.w3.org/2000/svg" xmlns:xlink="http://www.w3.org/1999/xlink">
    <!-- Generator: Sketch 55.1 (78136) - https://sketchapp.com -->
    <title>-g-Group 5</title>
    <desc>Created with Sketch.</desc>
    <g id="Page-1" stroke="none" stroke-width="1" fill="none" fill-rule="evenodd">
        <g id="Artboard-Copy-24" transform="translate(-354.000000, -251.000000)">
            <g id="-g-Group-5" transform="translate(348.000000, 249.917182)">
                <path d="M171.948229,102.534 L212.321202,119.313151" id="Path-9" stroke="#000000" stroke-width="2" stroke-linecap="round" transform="translate(192.134715, 110.923576) rotate(-291.000000) translate(-192.134715, -110.923576) "></path>
                <path d="M69.4835441,111.021598 C77.4618612,114.337414 84.607186,117.307037 90.9195187,119.930465 C97.2318514,122.553893 103.544184,125.177321 109.856517,127.800749" id="Path-9" stroke="#000000" stroke-width="2" stroke-linecap="round" transform="translate(89.670030, 119.411173) rotate(-345.000000) translate(-89.670030, -119.411173) "></path>
                <path d="M260.483544,112.021598 C268.461861,115.337414 275.607186,118.307037 281.919519,120.930465 C288.231851,123.553893 294.544184,126.177321 300.856517,128.800749" id="Path-9" stroke="#000000" stroke-width="2" stroke-linecap="round" transform="translate(280.670030, 120.411173) scale(-1, 1) rotate(-343.000000) translate(-280.670030, -120.411173) "></path>
                <g id="149220" transform="translate(37.000000, 68.797104) rotate(-15.000000) translate(-37.000000, -68.797104) translate(7.000000, 40.082818)" fill="#000000" fill-rule="nonzero">
                    <path d="M58.1253389,25.7728374 C59.2894941,24.6401432 59.7004421,22.9777547 59.198304,21.4324193 C58.6949815,19.8870838 57.3839746,18.7839484 55.7733427,18.5498425 L41.4529308,16.4724481 C40.8430224,16.3837717 40.3160142,16.0018716 40.0436279,15.4497127 L33.6413663,2.49467013 C32.9225035,1.0391935 31.4634605,0.134693398 29.8374329,0.134693398 C28.2125896,0.134693398 26.7535466,1.0391935 26.0346837,2.49467013 L19.6312379,15.4497127 C19.3588516,16.0018716 18.8306591,16.3837717 18.2207507,16.4724481 L3.9003388,18.5510248 C2.29089125,18.7839484 0.9798843,19.8870838 0.476561849,21.4324193 C-0.0255763135,22.9777547 0.385371664,24.6401432 1.54952689,25.7728374 L11.9108636,35.8559444 C12.3526031,36.2863209 12.5551164,36.9058739 12.450899,37.5112387 L10.0053441,51.7503167 C9.73058921,53.3500404 10.3760262,54.9355759 11.6917703,55.8909172 C13.0063302,56.8474408 14.7176265,56.9715879 16.1589051,56.2136996 L28.9657968,49.49084 C29.5117537,49.2047106 30.1631121,49.2047106 30.709069,49.49084 L43.517145,56.2136996 C44.1424491,56.5423937 44.8198619,56.7043761 45.4937218,56.7043761 C46.3689108,56.7043761 47.2405468,56.4312526 47.9842798,55.8909172 C49.3000239,54.9355759 49.9454609,53.3500404 49.670706,51.7503167 L47.2239668,37.5124211 C47.1197494,36.9058739 47.3222627,36.2875033 47.7640022,35.8571268 L58.1253389,25.7728374 Z M44.8909192,37.9120564 L47.3364741,52.1499521 C47.4596401,52.866458 47.1813324,53.5510405 46.5915569,53.9790523 C46.0005972,54.4058817 45.2651542,54.4579053 44.6197172,54.122117 L31.8116412,47.3980751 C31.1946271,47.0752927 30.5148457,46.912128 29.8374329,46.912128 C29.1600201,46.912128 28.481423,47.0752927 27.8632246,47.3992574 L15.0575172,54.122117 C14.4097116,54.4579053 13.6742686,54.4058817 13.0844932,53.9790523 C12.4947177,53.5510405 12.2175943,52.8676404 12.3395759,52.1499521 L14.7851309,37.9120564 C15.0208042,36.5381621 14.5648533,35.1358914 13.5653141,34.1639972 L3.2027931,24.0797078 C2.68052204,23.571296 2.50287882,22.85479 2.72907785,22.1631135 C2.95409259,21.4702546 3.51899803,20.9949486 4.24022949,20.8897192 L18.5594571,18.8123249 C19.9415214,18.6125072 21.1364681,17.7470248 21.7534822,16.4960952 L28.1569281,3.5410526 C28.4790544,2.8883937 29.1079114,2.49939954 29.8362486,2.49939954 C30.5657701,2.49939954 31.1934428,2.8883937 31.5167535,3.5410526 L37.9201993,16.4960952 C38.5372134,17.7470248 39.7309758,18.6125072 41.1130401,18.8123249 L55.433452,20.8897192 C56.1546835,20.9949486 56.7195889,21.4702546 56.9446037,22.1631135 C57.1696184,22.85479 56.9931595,23.571296 56.4708884,24.0797078 L46.1095517,34.1628148 C45.1100125,35.1358914 44.6540616,36.5369798 44.8909192,37.9120564 Z" id="Shape"></path>
                </g>
                <g id="149220-copy" opacity="0.900000036" transform="translate(191.477842, 34.500000) rotate(1.000000) translate(-191.477842, -34.500000) translate(156.477842, 1.000000)" fill="#000000" fill-rule="nonzero">
                    <path d="M67.8128954,30.0683103 C69.1710765,28.7468337 69.6505158,26.8073805 69.0646879,25.0044892 C68.4774784,23.2015978 66.9479703,21.9146065 65.0688998,21.6414829 L48.3617526,19.2178562 C47.6501928,19.1144003 47.0353499,18.6688502 46.7175659,18.0246649 L39.2482607,2.91044848 C38.4095874,1.21239241 36.7073706,0.157142298 34.8103384,0.157142298 C32.9146879,0.157142298 31.2124711,1.21239241 30.3737977,2.91044848 L22.9031109,18.0246649 C22.5853269,18.6688502 21.9691023,19.1144003 21.2575425,19.2178562 L4.55039527,21.6428623 C2.67270646,21.9146065 1.14319835,23.2015978 0.555988824,25.0044892 C-0.0298390324,26.8073805 0.449600275,28.7468337 1.80778137,30.0683103 L13.8960076,41.8319351 C14.4113703,42.3340411 14.6476358,43.0568529 14.5260489,43.7631118 L11.6729014,60.3753695 C11.3523541,62.2417139 12.1053639,64.0915052 13.6403987,65.2060701 C15.1740518,66.3220143 17.1705642,66.4668526 18.852056,65.5826495 L33.7934297,57.7393134 C34.4303793,57.4054957 35.1902975,57.4054957 35.8272471,57.7393134 L50.7700025,65.5826495 C51.4995239,65.966126 52.2898389,66.1551055 53.0760088,66.1551055 C54.0970625,66.1551055 55.1139713,65.8364613 55.9816597,65.2060701 C57.5166945,64.0915052 58.2697044,62.2417139 57.949157,60.3753695 L55.0946279,43.7644912 C54.973041,43.0568529 55.2093065,42.3354205 55.7246692,41.8333145 L67.8128954,30.0683103 Z M52.372739,44.2307325 L55.2258865,60.8416108 C55.3695801,61.6775344 55.0448878,62.4762139 54.3568164,62.975561 C53.6673633,63.4735287 52.8093466,63.5342228 52.0563367,63.1424698 L37.1135814,55.2977543 C36.3937316,54.9211748 35.6006533,54.730816 34.8103384,54.730816 C34.0200234,54.730816 33.2283268,54.9211748 32.5070954,55.2991337 L17.5671034,63.1424698 C16.8113302,63.5342228 15.9533134,63.4735287 15.265242,62.975561 C14.5771706,62.4762139 14.25386,61.6789138 14.3961719,60.8416108 L17.2493194,44.2307325 C17.5242716,42.6278558 16.9923289,40.9918733 15.8261998,39.8579967 L3.73659195,28.0929924 C3.12727571,27.4998453 2.92002529,26.6639217 3.18392416,25.8569657 C3.44644136,25.0486303 4.1054977,24.4941067 4.94693441,24.3713391 L21.6527,21.9477123 C23.2651083,21.7145917 24.6592128,20.7048622 25.3790626,19.2454444 L32.8497494,4.13122803 C33.2255635,3.36979265 33.95923,2.91596613 34.8089567,2.91596613 C35.6600651,2.91596613 36.3923499,3.36979265 36.7695457,4.13122803 L44.2402325,19.2454444 C44.9600823,20.7048622 46.3528052,21.7145917 47.9652134,21.9477123 L64.6723607,24.3713391 C65.5137974,24.4941067 66.1728537,25.0486303 66.4353709,25.8569657 C66.6978881,26.6639217 66.4920194,27.4998453 65.8827031,28.0929924 L53.7944769,39.8566173 C52.6283479,40.9918733 52.0964052,42.6264764 52.372739,44.2307325 Z" id="Shape"></path>
                </g>
                <g id="149220-copy-2" transform="translate(336.000000, 65.797104) rotate(29.000000) translate(-336.000000, -65.797104) translate(306.000000, 37.082818)" fill="#000000" fill-rule="nonzero">
                    <path d="M58.1253389,25.7728374 C59.2894941,24.6401432 59.7004421,22.9777547 59.198304,21.4324193 C58.6949815,19.8870838 57.3839746,18.7839484 55.7733427,18.5498425 L41.4529308,16.4724481 C40.8430224,16.3837717 40.3160142,16.0018716 40.0436279,15.4497127 L33.6413663,2.49467013 C32.9225035,1.0391935 31.4634605,0.134693398 29.8374329,0.134693398 C28.2125896,0.134693398 26.7535466,1.0391935 26.0346837,2.49467013 L19.6312379,15.4497127 C19.3588516,16.0018716 18.8306591,16.3837717 18.2207507,16.4724481 L3.9003388,18.5510248 C2.29089125,18.7839484 0.9798843,19.8870838 0.476561849,21.4324193 C-0.0255763135,22.9777547 0.385371664,24.6401432 1.54952689,25.7728374 L11.9108636,35.8559444 C12.3526031,36.2863209 12.5551164,36.9058739 12.450899,37.5112387 L10.0053441,51.7503167 C9.73058921,53.3500404 10.3760262,54.9355759 11.6917703,55.8909172 C13.0063302,56.8474408 14.7176265,56.9715879 16.1589051,56.2136996 L28.9657968,49.49084 C29.5117537,49.2047106 30.1631121,49.2047106 30.709069,49.49084 L43.517145,56.2136996 C44.1424491,56.5423937 44.8198619,56.7043761 45.4937218,56.7043761 C46.3689108,56.7043761 47.2405468,56.4312526 47.9842798,55.8909172 C49.3000239,54.9355759 49.9454609,53.3500404 49.670706,51.7503167 L47.2239668,37.5124211 C47.1197494,36.9058739 47.3222627,36.2875033 47.7640022,35.8571268 L58.1253389,25.7728374 Z M44.8909192,37.9120564 L47.3364741,52.1499521 C47.4596401,52.866458 47.1813324,53.5510405 46.5915569,53.9790523 C46.0005972,54.4058817 45.2651542,54.4579053 44.6197172,54.122117 L31.8116412,47.3980751 C31.1946271,47.0752927 30.5148457,46.912128 29.8374329,46.912128 C29.1600201,46.912128 28.481423,47.0752927 27.8632246,47.3992574 L15.0575172,54.122117 C14.4097116,54.4579053 13.6742686,54.4058817 13.0844932,53.9790523 C12.4947177,53.5510405 12.2175943,52.8676404 12.3395759,52.1499521 L14.7851309,37.9120564 C15.0208042,36.5381621 14.5648533,35.1358914 13.5653141,34.1639972 L3.2027931,24.0797078 C2.68052204,23.571296 2.50287882,22.85479 2.72907785,22.1631135 C2.95409259,21.4702546 3.51899803,20.9949486 4.24022949,20.8897192 L18.5594571,18.8123249 C19.9415214,18.6125072 21.1364681,17.7470248 21.7534822,16.4960952 L28.1569281,3.5410526 C28.4790544,2.8883937 29.1079114,2.49939954 29.8362486,2.49939954 C30.5657701,2.49939954 31.1934428,2.8883937 31.5167535,3.5410526 L37.9201993,16.4960952 C38.5372134,17.7470248 39.7309758,18.6125072 41.1130401,18.8123249 L55.433452,20.8897192 C56.1546835,20.9949486 56.7195889,21.4702546 56.9446037,22.1631135 C57.1696184,22.85479 56.9931595,23.571296 56.4708884,24.0797078 L46.1095517,34.1628148 C45.1100125,35.1358914 44.6540616,36.5369798 44.8909192,37.9120564 Z" id="Shape"></path>
                </g>
            </g>
        </g>
    </g>
</svg>