<?xml version="1.0" encoding="UTF-8"?>
<svg width="305px" height="84px" viewBox="0 0 305 84" version="1.1" xmlns="http://www.w3.org/2000/svg" xmlns:xlink="http://www.w3.org/1999/xlink">
    <!-- Generator: Sketch 55.1 (78136) - https://sketchapp.com -->
    <title>-g-Group 5</title>
    <desc>Created with Sketch.</desc>
    <g id="Page-1" stroke="none" stroke-width="1" fill="none" fill-rule="evenodd">
        <g id="Artboard-Copy-16" transform="translate(-555.000000, -348.000000)" fill="#000000">
            <g id="-g-Group-5" transform="translate(555.000000, 348.000000)">
                <g id="Group-3">
                    <path d="M24.9429235,66 C66.779823,65.9953791 108.610475,65.2556872 150.445032,64.928673 C162.315323,64.8362559 174.186395,64.7783175 186.057077,64.7772512 C187.313136,64.7768957 187.315479,63 186.057077,63 L173.307895,63 C172.051445,63 172.049493,64.7772512 173.307895,64.7772512 L186.057077,64.7772512 L186.057077,63 C144.219787,63.0042654 102.389525,63.7443128 60.5549677,64.071327 C48.6846768,64.1637441 36.8136049,64.2216825 24.9429235,64.2227488 C23.6868638,64.2227488 23.6845211,66 24.9429235,66" id="Fill-1263"></path>
                    <path d="M58,0.0952346929 C51.0722131,-0.340703472 44.1048658,0.713072323 38.0337008,3.39928917 C33.2746907,5.50490153 28.6888068,8.87372617 26.4413007,13.6605134 C25.3124557,16.0647667 25.038274,18.4961691 25.0449327,21.1156766 C25.049633,23.0021563 24.7519501,24.7517266 22.7551243,25.4874693 C21.2870774,26.0281257 19.5797091,25.9071179 18.0415501,25.9284494 C8.28029176,26.0657467 0.733246071,34.5417188 0.0493587048,43.9248612 C-0.97529728,57.9761101 14.1693219,63.3159647 25.3868764,65.9696026 C26.6120767,66.259323 27.1349803,64.3899085 25.9074299,64.0998002 C16.3635584,61.8417646 2.75357312,57.9028073 1.99487334,46.1759155 C1.69640703,41.5640466 3.4601784,36.8804262 6.47382639,33.3871032 C9.63435741,29.7239039 13.7545242,27.918096 18.5758126,27.8622463 C20.6975869,27.837812 23.1041184,27.8471203 24.897658,26.5528804 C27.0092484,25.0290361 26.9865305,22.5708723 26.9924058,20.226735 C27.0057232,14.9066605 30.0373889,10.5926567 34.3628002,7.64192937 C41.0579243,3.07388692 49.6656613,1.49147793 57.9592644,2.00576085 C57.9710151,1.3689188 57.9847242,0.732076745 58,0.0952346929" id="Fill-1265"></path>
                    <path d="M171.114816,25.0606472 C171.743081,24.876013 172.371346,24.6921644 173,24.5087087 C171.487338,21.7293744 169.5461,19.2026353 167.136195,17.0895556 C160.32065,11.1132993 150.422948,10.1610581 142.53655,14.6366702 C138.870115,16.7175372 136.006332,19.9729922 134.734232,23.9834833 C123.215654,13.7457119 103.013085,16.7591782 94.6829308,29.6391831 C93.1161612,16.6000785 83.6902419,7.44418508 72.0268589,3 C72.0163489,3.64621979 72.0077852,4.29243958 72,4.93865936 C83.5072899,9.54783673 92.7751699,20.0283825 92.9666856,33.0144539 C92.9799204,33.9242685 94.3551743,34.4357446 94.7802457,33.5102164 C101.497697,18.8809004 123.356955,14.9760829 134.569186,26.530257 C135.056539,27.0326978 136.047594,26.829993 136.195512,26.0969559 C138.316587,15.5783048 151.38364,11.3851437 160.473629,15.1253617 C165.232326,17.0832701 168.72087,20.6938513 171.114816,25.0606472" id="Fill-1267"></path>
                    <path d="M177.1946,44.5513914 C177.313107,42.3919791 177.254865,40.1907642 177.008144,38 C176.338358,38.1850151 175.669381,38.3711913 175,38.5573676 C175.256832,40.9513388 175.286762,43.3302146 175.102328,45.5937462 C175.046108,46.2800051 175.78991,46.6190703 176.38204,46.5269499 C180.383363,45.9026208 183.528849,49.5084794 185.160845,52.541488 C186.916606,55.8036366 187.931396,60.2033569 185.893322,63.5553036 C185.237288,64.6336551 186.984555,65.6090483 187.639376,64.5318581 C191.745859,57.7780338 186.064409,44.4995253 177.1946,44.5513914" id="Fill-1269"></path>
                </g>
                <path d="M208.938794,84 C233.716343,83.9921981 258.481064,83.2092944 283.253171,82.8592266 C290.188583,82.7608548 297.124773,82.6984396 304.061352,82.6960651 C305.311911,82.6957259 305.313854,80.9996608 304.061352,81 C279.283803,81.0081411 254.518693,81.7907056 229.746975,82.1411126 C222.811563,82.2391452 215.875373,82.3018996 208.938794,82.3039349 C207.688235,82.3042741 207.685903,84.0003392 208.938794,84" id="Fill-1271"></path>
                <path d="M304.999002,81.5742891 C305.082133,75.7176225 299.960677,66.8535518 293.170787,67.6012361 C293.494762,67.9241086 293.818349,68.2469811 294.141937,68.5702412 C295.097159,61.1577401 291.68687,52.3998723 284.176386,49.7312324 C277.788163,47.4614349 269.691882,50.6114766 267.642756,57.2991619 C268.23438,57.2216415 268.826005,57.1445087 269.417629,57.0673759 C266.862728,51.0448156 259.48199,48.2819884 253.352093,50.0025538 C246.146162,52.0258364 241.905345,59.3736079 241.351401,66.4496705 C241.83853,66.1709846 242.325659,65.8919112 242.812787,65.6132253 C239.700058,63.9721183 236.143319,63.5193992 232.709334,64.3163089 C230.895614,64.7368571 229.139387,65.5085728 227.624005,66.5899824 C226.073273,67.6969738 225.116885,69.3935079 223.621703,70.5051505 C221.811479,71.8509047 219.100806,70.9912034 216.95845,71.5024505 C215.313322,71.8950913 213.787063,72.7113812 212.472903,73.7613951 C209.642196,76.0230529 207.945403,79.4382143 208.001341,83.0642312 C208.020764,84.3099842 209.963064,84.3138602 209.943641,83.0642312 C209.889645,79.5599213 211.777949,76.350189 214.751609,74.5106298 C216.254172,73.5807725 217.922996,73.1389062 219.681942,73.1497591 C221.388447,73.1598367 223.019978,73.3075131 224.493407,72.2892826 C225.717444,71.443535 226.489702,70.1357657 227.565348,69.1311013 C228.813081,67.9667448 230.317974,67.093865 231.935521,66.550447 C235.207519,65.4504325 238.775135,65.674854 241.832703,67.2865033 C242.515615,67.6465855 243.23582,67.1899904 243.293701,66.4496705 C243.780829,60.2271076 247.53646,53.6646177 253.868356,51.8715708 C259.24503,50.3486824 265.517492,52.8056916 267.740648,58.0456834 C268.087154,58.8623609 269.295264,58.5328991 269.515521,57.814285 C271.326133,51.9052921 278.892555,49.4409185 284.303024,51.8595551 C290.560725,54.6568789 293.019287,62.21163 292.199637,68.5702412 C292.137872,69.0524181 292.696866,69.5911849 293.170787,69.5392462 C298.88309,68.9101681 303.126237,76.6889532 303.056703,81.5742891 C303.038834,82.82198 304.981133,82.8223676 304.999002,81.5742891" id="Fill-1273"></path>
            </g>
        </g>
    </g>
</svg>