<?xml version="1.0" encoding="UTF-8"?>
<svg width="73px" height="152px" viewBox="0 0 73 152" version="1.1" xmlns="http://www.w3.org/2000/svg" xmlns:xlink="http://www.w3.org/1999/xlink">
    <!-- Generator: Sketch 55.1 (78136) - https://sketchapp.com -->
    <title>Group 628</title>
    <desc>Created with Sketch.</desc>
    <g id="Page-1" stroke="none" stroke-width="1" fill="none" fill-rule="evenodd">
        <g id="Artboard-Copy-16" transform="translate(-157.000000, -838.000000)" fill="#000000">
            <g id="Group-628" transform="translate(157.000000, 838.000000)">
                <path d="M0.27896087,64.4503247 C0.316526087,92.9172078 0.324743478,121.384481 0.260178261,149.851364 C0.241395652,157.996558 0.216743478,166.140974 0.185432147,174.285779 C0.181917391,175.137857 1.51156957,175.139026 1.5147,174.285779 C1.62426522,145.771753 1.6500913,117.256948 1.63248261,88.7425325 C1.62778696,80.6448701 1.61917826,72.5475974 1.60861304,64.4503247 C1.60743913,63.5982468 0.277786957,63.5970779 0.27896087,64.4503247" id="Fill-546"></path>
                <path d="M0.18536087,11.4899221 C0.326621739,24.3607013 0.327013043,37.2322597 0.26283913,50.103039 C0.258534783,50.9551169 1.58779565,50.9562857 1.5921,50.103039 C1.65666522,37.2322597 1.65627391,24.3607013 1.51462174,11.4899221 C1.50562174,10.6386234 0.175969565,10.6366753 0.18536087,11.4899221" id="Fill-548"></path>
                <path d="M57.4075174,12.2387143 L71.0730391,12.2387143 C72.0407348,12.2387143 72.0423,10.7414416 71.0730391,10.7414416 L57.4075174,10.7414416 C56.4398217,10.7414416 56.4382565,12.2387143 57.4075174,12.2387143" id="Fill-550"></path>
                <path d="M1.10496522,12.2387143 C16.0457478,12.0583247 30.9877043,12.0591039 45.9280957,12.2387143 C46.8961826,12.250013 46.8965739,10.7531299 45.9280957,10.7414416 C30.9877043,10.5618312 16.0457478,10.5610519 1.10496522,10.7414416 C0.138052174,10.7531299 0.135313043,12.250013 1.10496522,12.2387143" id="Fill-552"></path>
                <path d="M70.7189087,11.6002597 L70.7189087,31.2635065 C70.7189087,32.0641558 71.9691261,32.0657143 71.9691261,31.2635065 L71.9691261,11.6002597 C71.9691261,10.7988312 70.7189087,10.7976623 70.7189087,11.6002597" id="Fill-554"></path>
                <path d="M71.0935287,40.6394968 C71.1310939,69.1063799 71.1393113,97.5736527 71.0747461,126.040536 C71.0559635,134.185731 71.0313113,142.330146 71,150.474951 C70.9964852,151.327029 72.3261374,151.328198 72.3292679,150.474951 C72.4388331,121.960925 72.4646592,93.4461202 72.4470505,64.9317046 C72.4423548,56.8340423 72.4337461,48.7367696 72.4231809,40.6394968 C72.422007,39.7874189 71.0923548,39.7862501 71.0935287,40.6394968" id="Fill-546"></path>
                <path d="M7.60484348,3.60490909 L7.60484348,9.65477922 C7.60484348,10.9085455 9.56136522,10.9104935 9.56136522,9.65477922 L9.56136522,3.60490909 C9.56136522,2.35114286 7.60484348,2.34919481 7.60484348,3.60490909" id="Fill-556"></path>
                <path d="M8.58310435,2.15867532 L30.4581913,2.15867532 C31.7174087,2.15867532 31.7193652,0.210623377 30.4581913,0.210623377 L8.58310435,0.210623377 C7.32427826,0.210623377 7.32193043,2.15867532 8.58310435,2.15867532" id="Fill-558"></path>
                <path d="M29.4800478,1.18464935 L29.4800478,9.65477922 C29.4800478,10.9085455 31.4365696,10.9104935 31.4365696,9.65477922 L31.4365696,1.18464935 C31.4365696,-0.0687272727 29.4800478,-0.0710649351 29.4800478,1.18464935" id="Fill-560"></path>
                <path d="M10.3707391,26.1627273 L10.3707391,31.7380519 C10.3707391,33.2996104 12.8085652,33.3023377 12.8085652,31.7380519 L12.8085652,26.1627273 C12.8085652,24.6007792 10.3707391,24.5980519 10.3707391,26.1627273" id="Fill-562"></path>
                <path d="M25.0872652,26.1418052 L25.0872652,31.7171299 C25.0872652,33.2786883 27.5250913,33.2814156 27.5250913,31.7171299 L27.5250913,26.1418052 C27.5250913,24.5798571 25.0872652,24.5771299 25.0872652,26.1418052" id="Fill-564"></path>
                <path d="M41.3552348,26.0322078 L41.3552348,31.2635065 C41.3552348,32.4619481 43.2260609,32.4638961 43.2260609,31.2635065 L43.2260609,26.0322078 C43.2260609,24.8337662 41.3552348,24.8318182 41.3552348,26.0322078" id="Fill-566"></path>
                <path d="M8.93715652,49.082026 L8.93715652,54.2244935 C8.93715652,55.6200779 11.1155478,55.6224156 11.1155478,54.2244935 L11.1155478,49.082026 C11.1155478,47.6864416 8.93715652,47.6841039 8.93715652,49.082026" id="Fill-568"></path>
                <path d="M24.8875826,49.082026 L24.8875826,54.2244935 C24.8875826,55.442026 26.7877565,55.443974 26.7877565,54.2244935 L26.7877565,49.082026 C26.7877565,47.8644935 24.8875826,47.8621558 24.8875826,49.082026" id="Fill-570"></path>
                <path d="M8.88652174,91.782039 L8.88652174,96.9248961 C8.88652174,98.3204805 11.064913,98.3228182 11.064913,96.9248961 L11.064913,91.782039 C11.064913,90.3864545 8.88652174,90.3841169 8.88652174,91.782039" id="Fill-572"></path>
                <path d="M25.1911957,91.1770519 L25.1911957,96.924974 C25.1911957,98.386013 27.4717174,98.3883506 27.4717174,96.924974 L27.4717174,91.1770519 C27.4717174,89.716013 25.1911957,89.7136753 25.1911957,91.1770519" id="Fill-574"></path>
                <path d="M39.9199304,92.9500909 L39.9199304,96.8828182 C39.9199304,98.1365844 41.8764522,98.1381429 41.8764522,96.8828182 L41.8764522,92.9500909 C41.8764522,91.6967143 39.9199304,91.6943766 39.9199304,92.9500909" id="Fill-576"></path>
                <path d="M8.96239565,112.507831 L8.96239565,117.650299 C8.96239565,119.045883 11.140787,119.048221 11.140787,117.650299 L11.140787,112.507831 C11.140787,111.112247 8.96239565,111.109909 8.96239565,112.507831" id="Fill-578"></path>
                <path d="M25.2670304,111.902883 L25.2670304,117.650416 C25.2670304,119.111455 27.5479435,119.114182 27.5479435,117.650416 L27.5479435,111.902883 C27.5479435,110.441455 25.2670304,110.439117 25.2670304,111.902883" id="Fill-580"></path>
                <path d="M39.9958043,113.242948 L39.9958043,117.175675 C39.9958043,118.429442 41.9523261,118.431 41.9523261,117.175675 L41.9523261,113.242948 C41.9523261,111.989571 39.9958043,111.987234 39.9958043,113.242948" id="Fill-582"></path>
                <path d="M8.69239565,131.112117 L8.69239565,136.254584 C8.69239565,137.650169 10.870787,137.652506 10.870787,136.254584 L10.870787,131.112117 C10.870787,129.716532 8.69239565,129.714195 8.69239565,131.112117" id="Fill-584"></path>
                <path d="M24.9970696,130.506779 L24.9970696,136.254701 C24.9970696,137.71574 27.2775913,137.718078 27.2775913,136.254701 L27.2775913,130.506779 C27.2775913,129.04574 24.9970696,129.043403 24.9970696,130.506779" id="Fill-586"></path>
                <path d="M39.7258043,131.847195 L39.7258043,135.779922 C39.7258043,137.033688 41.6823261,137.035247 41.6823261,135.779922 L41.6823261,131.847195 C41.6823261,130.593818 39.7258043,130.591481 39.7258043,131.847195" id="Fill-588"></path>
                <path d="M8.9877913,151.183519 L8.9877913,156.326377 C8.9877913,157.721571 11.1661826,157.724299 11.1661826,156.326377 L11.1661826,151.183519 C11.1661826,149.787935 8.9877913,149.785597 8.9877913,151.183519" id="Fill-590"></path>
                <path d="M25.2924652,150.578571 L25.2924652,156.326494 C25.2924652,157.787532 27.572987,157.78987 27.572987,156.326494 L27.572987,150.578571 C27.572987,149.117532 25.2924652,149.115195 25.2924652,150.578571" id="Fill-592"></path>
                <path d="M40.0212,152.35161 L40.0212,156.284338 C40.0212,157.538104 41.9777217,157.539662 41.9777217,156.284338 L41.9777217,152.35161 C41.9777217,151.098234 40.0212,151.095896 40.0212,152.35161" id="Fill-594"></path>
                <path d="M8.667,69.2237922 L8.667,74.3662597 C8.667,75.7618442 10.8453913,75.7641818 10.8453913,74.3662597 L10.8453913,69.2237922 C10.8453913,67.8282078 8.667,67.8258701 8.667,69.2237922" id="Fill-620"></path>
                <path d="M24.9716739,68.6188442 L24.9716739,74.3663766 C24.9716739,75.8278052 27.252587,75.8301429 27.252587,74.3663766 L27.252587,68.6188442 C27.252587,67.1578052 24.9716739,67.1550779 24.9716739,68.6188442" id="Fill-622"></path>
                <path d="M60.1911957,68.1770519 L60.1911957,73.924974 C60.1911957,75.386013 62.4717174,75.3883506 62.4717174,73.924974 L62.4717174,68.1770519 C62.4717174,66.716013 60.1911957,66.7136753 60.1911957,68.1770519" id="Fill-574"></path>
                <path d="M60.2670304,88.9028831 L60.2670304,94.6504156 C60.2670304,96.1114545 62.5479435,96.1141818 62.5479435,94.6504156 L62.5479435,88.9028831 C62.5479435,87.4414545 60.2670304,87.4391169 60.2670304,88.9028831" id="Fill-580"></path>
                <path d="M59.9716739,45.6188442 L59.9716739,51.3663766 C59.9716739,52.8278052 62.252587,52.8301429 62.252587,51.3663766 L62.252587,45.6188442 C62.252587,44.1578052 59.9716739,44.1550779 59.9716739,45.6188442" id="Fill-622"></path>
                <path d="M39.7004087,69.5262857 L39.7004087,73.459013 C39.7004087,74.7127792 41.6569304,74.7143377 41.6569304,73.459013 L41.6569304,69.5262857 C41.6569304,68.2729091 39.7004087,68.2705714 39.7004087,69.5262857" id="Fill-624"></path>
                <path d="M59.6989565,26.1627273 L59.6989565,30.8302597 C59.6989565,32.1502597 61.7591739,32.1525974 61.7591739,30.8302597 L61.7591739,26.1627273 C61.7591739,24.8427273 59.6989565,24.8403896 59.6989565,26.1627273" id="Fill-626"></path>
            </g>
        </g>
    </g>
</svg>