<?xml version="1.0" encoding="UTF-8"?>
<svg width="139px" height="131px" viewBox="0 0 139 131" version="1.1" xmlns="http://www.w3.org/2000/svg" xmlns:xlink="http://www.w3.org/1999/xlink">
    <!-- Generator: Sketch 55.1 (78136) - https://sketchapp.com -->
    <title>iconfinder_Umbrella_2976471</title>
    <desc>Created with Sketch.</desc>
    <g id="Page-1" stroke="none" stroke-width="1" fill="none" fill-rule="evenodd">
        <g id="Artboard-Copy-16" transform="translate(-171.000000, -347.000000)" stroke="#000000" stroke-width="2">
            <g id="iconfinder_Umbrella_2976471" transform="translate(174.000000, 348.000000)">
                <path d="M0.40625,38.8145252 C25.3535115,9.87128956 51.906082,-0.506321131 80.0639617,7.68169311 C108.221841,15.8697073 126.200521,36.7609659 134,70.3554688 C128.554687,67.0078125 122.854492,65.3339844 116.899414,65.3339844 C110.944336,65.3339844 105.451591,66.6744792 100.421179,69.3554687 C97.2966432,64.8671875 92.3453776,61.4736328 85.5673828,59.1748047 C78.789388,56.8759766 71.7014974,57.3942057 64.3037109,60.7294922 C60.3602429,54.3460286 55.5506725,50.4176432 49.875,48.9443359 C44.1993275,47.4710286 38.4867624,48.0660807 32.7373047,50.7294922 C28.2932943,44.5884578 23.468099,40.6168021 18.2617187,38.8145252 C13.0553385,37.0122482 7.10351562,37.0122482 0.40625,38.8145252 Z" id="Path-3"></path>
                <polyline id="Path-4" points="74.0800781 7.15253847 82.6044675 0.5 85.4599609 6.68169311"></polyline>
                <path d="M31.4521484,52.9697266 C41.4892578,25.8291016 56.5959204,10.3997571 76.7721361,6.68169311" id="Path-5"></path>
                <path d="M101.853516,64.5 C102.20166,36.1009115 96.2500814,17.5927734 83.9987793,8.97558594" id="Path-6"></path>
                <path d="M80.0639617,8.5 L50.8126421,111.936848 L48.6738281,119.5 C46.7709445,126.647786 43.3099791,129.451497 38.2909319,127.911133 C33.2718846,126.370768 32.3553835,121.824219 35.5414286,114.271484" id="Path-8"></path>
            </g>
        </g>
    </g>
</svg>