<?xml version="1.0" encoding="UTF-8"?>
<svg width="91px" height="87px" viewBox="0 0 91 87" version="1.1" xmlns="http://www.w3.org/2000/svg" xmlns:xlink="http://www.w3.org/1999/xlink">
    <!-- Generator: Sketch 55.1 (78136) - https://sketchapp.com -->
    <title>1651768</title>
    <desc>Created with Sketch.</desc>
    <g id="Page-1" stroke="none" stroke-width="1" fill="none" fill-rule="evenodd">
        <g id="Artboard-Copy-17" transform="translate(-64.000000, -854.000000)" fill="#000000" fill-rule="nonzero">
            <g id="1651768" transform="translate(112.430079, 892.543611) rotate(-330.000000) translate(-112.430079, -892.543611) translate(72.430079, 854.965486)">
                <path d="M72.5048828,16.4880372 L60.1184081,16.4880372 L60.1184081,12.9382325 C60.1184081,12.2845459 59.5886231,11.7547608 58.9349366,11.7547608 L57.9095459,11.7547608 L57.9095459,10.0976563 C57.9095459,4.57275391 53.4143066,0.078125 47.8894044,0.078125 L32.1105956,0.078125 C26.5856934,0.078125 22.0910644,4.57275391 22.0910644,10.0976563 L22.0910644,11.7547608 L21.0650634,11.7547608 C20.4113769,11.7547608 19.8815919,12.2845459 19.8815919,12.9382325 L19.8815919,16.4886475 L15.3649903,16.4886475 C14.7113038,16.4886475 14.1815186,17.0184327 14.1815186,17.6715088 C14.1815186,18.3251953 14.7113038,18.8549805 15.3649903,18.8549805 L72.5048828,18.8549805 C75.3326416,18.8549805 77.6330566,21.1560059 77.6330566,23.9837647 L77.6330566,34.397583 C77.6330566,36.8432617 75.8911133,38.9593506 73.5040283,39.4281006 L44.9401856,44.7204591 L35.0592041,44.7204591 L6.50817875,39.4299316 C4.10888672,38.9593506 2.36694344,36.8432617 2.36694344,34.397583 L2.36694344,23.9831544 C2.36694344,21.1553955 4.66735844,18.8549805 7.49511719,18.8549805 L9.87182625,18.8549805 C10.5255127,18.8549805 11.0552978,18.3251953 11.0552978,17.6715088 C11.0552978,17.0178222 10.5255127,16.4880372 9.87182625,16.4880372 L7.49511719,16.4880372 C3.36242672,16.4880372 5.68434189e-14,19.8504639 5.68434189e-14,23.9831544 L5.68434189e-14,34.397583 C5.68434189e-14,36.8792725 1.22802734,39.1278077 3.1555175,40.5023194 L3.1555175,67.5335694 C3.1555175,71.6662597 6.51794438,75.0286866 10.6506347,75.0286866 L57.1203613,75.0286866 C57.7740478,75.0286866 58.303833,74.4989014 58.303833,73.8452148 C58.303833,73.1915283 57.7740478,72.6617431 57.1203613,72.6617431 L10.6506347,72.6617431 C7.82287594,72.6617431 5.52246094,70.3613281 5.52246094,67.5335694 L5.52246094,41.6259766 C5.70068359,41.6748047 5.88134766,41.71875 6.06506344,41.7547608 L33.7670898,46.8878173 L33.7670898,59.3157959 C33.7670898,59.8333741 34.1033936,60.2905273 34.5977783,60.4449462 L39.6472169,62.0233155 C39.7619628,62.0587158 39.8809814,62.0770264 40,62.0770264 C40.1190186,62.0770264 40.2380372,62.0587158 40.3527831,62.0233155 L45.4022217,60.4449462 C45.8966064,60.2905273 46.2329102,59.8333741 46.2329102,59.3157959 L46.2329102,46.8878173 L73.9471436,41.7529297 C74.1265869,41.7175294 74.3029784,41.6741944 74.4775391,41.6271972 L74.4775391,67.5335694 C74.4775391,70.3619384 72.1771241,72.6617431 69.3493653,72.6617431 L62.65625,72.6617431 C62.0025634,72.6617431 61.4727783,73.1915283 61.4727783,73.8452148 C61.4727783,74.4989014 62.0025634,75.0286866 62.65625,75.0286866 L69.3493653,75.0286866 C73.4820556,75.0286866 76.843872,71.6662597 76.843872,67.5335694 L76.843872,40.5041503 C78.7701416,39.1308594 80,36.8804931 80,34.397583 L80,23.9831544 C80,19.8504639 76.6375733,16.4880372 72.5048828,16.4880372 Z M24.4573975,10.0976562 C24.4573975,5.87768562 27.890625,2.44506844 32.1105956,2.44506844 L47.8894044,2.44506844 C52.109375,2.44506844 55.5426025,5.87768562 55.5426025,10.0976562 L55.5426025,11.7547608 L52.8601075,11.7547608 L52.8601075,10.0976562 C52.8601075,7.35717781 50.6298828,5.12756344 47.8894044,5.12756344 L45.2661133,5.12756344 C44.6124267,5.12756344 44.0826416,5.65734859 44.0826416,6.31042484 C44.0826416,6.96411125 44.6124267,7.49389656 45.2661133,7.49389656 L47.8894044,7.49389656 C49.3249513,7.49389656 50.4931641,8.66210938 50.4931641,10.0976562 L50.4931641,11.7547608 L49.4671631,11.7547608 C48.8134766,11.7547608 48.2836914,12.2845459 48.2836914,12.9382325 L48.2836914,16.4886475 L31.7156983,16.4886475 L31.7156983,12.9382325 C31.7156983,12.2845459 31.1859131,11.7547608 30.5322266,11.7547608 L29.5068359,11.7547608 L29.5068359,10.0976562 C29.5068359,8.66210938 30.6750488,7.49389656 32.1105956,7.49389656 L39.7631836,7.49389656 C40.4168702,7.49389656 40.9466553,6.96411125 40.9466553,6.31042484 C40.9466553,5.65734859 40.4168702,5.12756344 39.7631836,5.12756344 L32.1105956,5.12756344 C29.3701172,5.12756344 27.1398925,7.35717781 27.1398925,10.0976562 L27.1398925,11.7547608 L24.4573975,11.7547608 L24.4573975,10.0976562 Z M22.2485352,16.4880372 L22.2485352,14.1210938 L29.3493653,14.1210938 L29.3493653,16.4880372 L22.2485352,16.4880372 Z M50.6506347,16.4880372 L50.6506347,14.1210938 L57.7514648,14.1210938 L57.7514648,16.4880372 L50.6506347,16.4880372 Z M36.1340331,47.086792 L43.8659669,47.086792 L43.8659669,51.6625977 L36.1340331,51.6625977 L36.1340331,47.086792 Z M43.8659669,58.4454345 L40,59.6539306 L36.1340331,58.4454345 L36.1340331,54.0295409 L43.8659669,54.0295409 L43.8659669,58.4454345 Z" id="Shape"></path>
            </g>
        </g>
    </g>
</svg>