<?xml version="1.0" encoding="UTF-8"?>
<svg width="120px" height="43px" viewBox="0 0 120 43" version="1.1" xmlns="http://www.w3.org/2000/svg" xmlns:xlink="http://www.w3.org/1999/xlink">
    <!-- Generator: Sketch 55.1 (78136) - https://sketchapp.com -->
    <title>-g-Group</title>
    <desc>Created with Sketch.</desc>
    <g id="Page-1" stroke="none" stroke-width="1" fill="none" fill-rule="evenodd">
        <g id="Artboard-Copy-27" transform="translate(-546.000000, -190.000000)" fill="#000000">
            <g id="-g-Group" transform="translate(546.000000, 190.000000)">
                <path d="M93.0967061,41.4789688 C101.676598,41.3478064 110.257451,41.2645862 118.838786,41.2614202 C120.385869,41.2609679 120.388273,38.9995477 118.838786,39 C88.1861477,39.0108548 57.5488987,40.0542741 26.9034743,40.5214835 C18.3235826,40.6521936 9.7427291,40.7358661 1.1613947,40.7385798 C-0.385688506,40.7390321 -0.388573958,43.0004523 1.1613947,43 C31.8140328,42.9895975 62.4508008,41.9457259 93.0967061,41.4789688 Z" id="Fill-1271"></path>
                <path d="M105.365922,22.8529472 C105.766716,23.2496191 106.16703,23.646291 106.567344,24.0434391 C107.749063,14.9366521 103.530148,4.17698599 94.2388282,0.89837121 C86.3358718,-1.89023709 76.3198537,1.97981408 73.7848525,10.1961132 C74.516759,10.1008738 75.2486655,10.0061107 75.980572,9.91134752 C72.81987,2.51220207 63.6890599,-0.882128522 56.1056819,1.23170895 C47.1911278,3.7174561 41.9447566,12.7447183 41.2594652,21.4381666 C41.8620987,21.0957811 42.4647322,20.7529194 43.0673656,20.410534 C39.2165666,18.3943168 34.8164773,17.838119 30.5682478,18.8171796 C28.3244713,19.3338531 26.1518191,20.2819608 24.2771196,21.6105498 C22.3586883,22.9705678 21.1755276,25.0548811 19.3258177,26.4206134 C17.0863664,28.0739686 13.7329562,27.0177642 11.0826185,27.6458677 C9.04740894,28.1282551 7.15925353,29.1311255 5.53348876,30.4211425 C2.03158281,33.1997507 -0.067542376,37.3955204 0.0016595531,41.8503412 C0.0256880007,43.3808377 2.42853276,43.3855996 2.40450431,41.8503412 C2.33770523,37.5450462 4.67375091,33.6016608 8.35250624,31.3416309 C10.2113469,30.1992348 12.2758712,29.6563705 14.4518874,29.669704 C16.5630268,29.6820851 18.5814164,29.8635161 20.4042144,28.6125472 C21.9184872,27.5734858 22.8738583,25.9667979 24.2045537,24.7324959 C25.7481412,23.3020008 27.6098653,22.2296056 29.6109544,21.5619778 C33.6587867,20.2105313 38.0723319,20.4862492 41.8548902,22.4662754 C42.6997304,22.9086622 43.5907052,22.3477024 43.66231,21.4381666 C44.2649435,13.7933036 48.9110841,5.73081606 56.744358,3.52792979 C63.3959129,1.65695267 71.1556598,4.67556401 73.9059559,11.1132682 C74.3346234,12.1166148 75.8291928,11.7118475 76.1016754,10.8289787 C78.3416073,3.56935891 87.7021293,0.541699827 94.3954937,3.51316769 C102.136979,6.94987979 105.1785,16.2314311 104.164499,24.0434391 C104.088089,24.6358279 104.779628,25.2977414 105.365922,25.2339311 C112.432688,24.4610637 117.681943,34.0178567 117.595921,40.0198409 C117.573815,41.5527183 119.97666,41.5531945 119.998766,40.0198409 C120.101608,32.8245076 113.765786,21.9343636 105.365922,22.8529472 Z" id="Fill-1273"></path>
            </g>
        </g>
    </g>
</svg>