<?xml version="1.0" encoding="UTF-8"?>
<svg width="147px" height="145px" viewBox="0 0 147 145" version="1.1" xmlns="http://www.w3.org/2000/svg" xmlns:xlink="http://www.w3.org/1999/xlink">
    <!-- Generator: Sketch 55.1 (78136) - https://sketchapp.com -->
    <title>Group 2</title>
    <desc>Created with Sketch.</desc>
    <g id="Page-1" stroke="none" stroke-width="1" fill="none" fill-rule="evenodd">
        <g id="Artboard-Copy-17" transform="translate(-656.000000, -174.000000)">
            <g id="Group-2" transform="translate(656.959292, 153.447222)">
                <path d="M20,175.54187 C29.8536241,158.87325 33.8943595,143.764413 32.1222062,130.21536 C30.3500529,116.666306 33.9759842,103.108477 43,89.5418702" id="-g-Path-8" stroke="#000000" stroke-width="2" stroke-linecap="round" transform="translate(31.500000, 132.541870) rotate(-150.000000) translate(-31.500000, -132.541870) "></path>
                <g id="-g-702825" transform="translate(111.487930, 55.000000) rotate(-315.000000) translate(-111.487930, -55.000000) translate(81.487930, 8.000000)" fill="#231F20" fill-rule="nonzero">
                    <path d="M46.2145329,52.567474 C47.5432526,42.6020761 47.6262976,30.4775087 43.6401384,19.017301 C43.6401384,18.7681661 43.5570934,18.5190311 43.3910035,18.3529412 C41.0657439,11.9584775 37.4948097,5.81314879 32.0968858,0.415224913 C31.8477509,0.166089965 31.432526,0 31.100346,0 L29.3564014,0 C28.9411765,0 28.6089965,0.166089965 28.3598616,0.415224913 C22.9619377,5.81314879 19.3910035,11.9584775 17.0657439,18.3529412 C16.982699,18.5190311 16.899654,18.6851211 16.899654,18.9342561 C12.9134948,30.2283737 12.9965398,42.2698962 14.3252595,52.1522491 C14.2422145,52.1522491 14.2422145,52.1522491 14.1591696,52.2352941 C0.62283737,60.0415225 0.0415224913,72.4982699 0.0415224913,72.9965398 C0.0415224913,73.4117647 0.207612457,73.7439446 0.456747405,73.9930796 C0.705882353,74.2422145 1.12110727,74.4083045 1.4532872,74.4083045 L20.8027682,74.4083045 L39.0726644,74.4083045 L39.8200692,74.4083045 L58.5051903,74.4083045 C58.9204152,74.4083045 59.2525952,74.2422145 59.5017301,73.9930796 C59.7508651,73.7439446 59.916955,73.3287197 59.916955,72.9965398 C59.83391,72.4982699 59.2525952,60.3737024 46.2145329,52.567474 Z M31.6816609,4.15224913 C35.5017301,8.30449827 38.2422145,12.9550173 40.2352941,17.7716263 L31.6816609,17.7716263 L31.6816609,4.15224913 L31.6816609,4.15224913 Z M28.8581315,4.15224913 L28.8581315,17.7716263 L20.3875433,17.7716263 C22.2975779,12.9550173 25.1211073,8.30449827 28.8581315,4.15224913 Z M3.03114187,71.6678201 C3.61245675,68.5121107 5.85467128,60.7058824 14.7404844,55.2249135 C15.9861592,62.7820069 17.8131488,68.7612457 18.8096886,71.6678201 L3.03114187,71.6678201 Z M38.8235294,71.6678201 L32.3460208,71.6678201 L32.3460208,50.4913495 C32.3460208,49.7439446 31.6816609,49.0795848 30.9342561,49.0795848 C30.1868512,49.0795848 29.5224913,49.7439446 29.5224913,50.4913495 L29.5224913,71.6678201 L21.799308,71.6678201 C20.0553633,66.7681661 12.083045,42.3529412 19.3079585,20.5951557 L41.2318339,20.5951557 C48.5397924,42.3529412 40.567474,66.7681661 38.8235294,71.6678201 Z M41.8131488,71.6678201 C42.8096886,68.8442907 44.5536332,63.0311419 45.799308,55.6401384 C54.2698962,61.1211073 56.3460208,68.5951557 56.9273356,71.6678201 C56.9273356,71.6678201 41.8131488,71.6678201 41.8131488,71.6678201 Z" id="Shape"></path>
                    <path d="M39.0726644,75.9861592 L22.7958478,75.9861592 C22.0484429,75.9861592 21.384083,76.650519 21.384083,77.3979239 C21.384083,88.8581315 29.9377163,93.2595156 30.2698962,93.4256055 C30.4359862,93.5086505 30.6851211,93.5916955 30.9342561,93.5916955 C31.183391,93.5916955 31.349481,93.5086505 31.5986159,93.4256055 C31.9307958,93.2595156 40.4844291,88.7750865 40.4844291,77.3979239 C40.4844291,76.650519 39.8200692,75.9861592 39.0726644,75.9861592 Z M30.9342561,90.5190311 C29.2733564,89.4394464 24.7889273,85.8685121 24.2906574,78.8096886 L37.5778547,78.8096886 C37.0795848,85.9515571 32.6782007,89.4394464 30.9342561,90.5190311 Z" id="Shape"></path>
                </g>
            </g>
        </g>
    </g>
</svg>