<?xml version="1.0" encoding="UTF-8"?>
<svg width="1680px" height="27px" viewBox="0 0 1680 27" version="1.1" xmlns="http://www.w3.org/2000/svg" xmlns:xlink="http://www.w3.org/1999/xlink">
    <!-- Generator: Sketch 55.1 (78136) - https://sketchapp.com -->
    <title>Combined Shape</title>
    <desc>Created with Sketch.</desc>
    <g id="Page-1" stroke="none" stroke-width="1" fill="none" fill-rule="evenodd">
        <path d="M1680,0 L1680,10.1578947 C1659.33594,10.1578947 1609.33594,10.1578947 1530,10.1578947 C1410.99609,10.1578947 1019.77514,25.9473684 977,25.9473684 C910.107422,25.9473684 901.446899,3.87463008 820.480469,10.1578947 C739.514038,16.4411594 750.571617,25.9473684 682.980469,25.9473684 C615.38932,25.9473684 613.940789,10.1578947 548.621094,10.1578947 C483.301399,10.1578947 483.397272,25.9473684 419.355469,25.9473684 C355.313666,25.9473684 356.895921,10.1578947 291.722656,10.1578947 C226.549392,10.1578947 216.076728,27 154.351562,27 C122.720463,27 90,10.1578947 48,10.1578947 C29.796875,10.1578947 13.796875,10.1578947 0,10.1578947 L0,0 L1680,0 Z" id="Combined-Shape" fill="#DA1E1D"></path>
    </g>
</svg>