<?xml version="1.0" encoding="UTF-8"?>
<svg width="44px" height="50px" viewBox="0 0 44 50" version="1.1" xmlns="http://www.w3.org/2000/svg" xmlns:xlink="http://www.w3.org/1999/xlink">
    <!-- Generator: Sketch 55.1 (78136) - https://sketchapp.com -->
    <title>redpin copy 8</title>
    <desc>Created with Sketch.</desc>
    <g id="Page-1" stroke="none" stroke-width="1" fill="none" fill-rule="evenodd">
        <g id="Artboard-Copy-13" transform="translate(-508.000000, -183.000000)">
            <g id="-g-ico_red-copy-21" transform="translate(80.000000, 183.000000)">
                <g id="redpin" transform="translate(428.000000, 0.000000)">
                    <g id="Group-25">
                        <path d="M22,50 C20.178462,46.7066272 17.2222748,44.0753897 13.1314383,42.1062875 C5.49393367,38.4300157 0,30.9705549 0,21.9827586 C0,9.84201628 9.8497355,0 22,0 C34.1502645,0 44,9.84201628 44,21.9827586 C44,30.7364083 37.808589,38.1544681 30.6400211,42.1062875 C26.1187454,44.5987331 23.2387384,47.2299706 22,50 Z" id="Combined-Shape-Copy" fill="#DA1E1D"></path>
                        <path d="M27.0691834,21.7416131 L28.2105263,21.7416131 C29.3937978,21.7416131 30.353029,22.6897159 30.353029,23.8592601 L30.353029,29.3121788 C30.353029,29.8777663 30.6413444,30.4052863 31.119925,30.7153399 C31.562183,31.0018614 32.1300896,31.0174532 32.5877575,30.7556388 L32.6941611,30.6947694 C33.2372521,30.3840878 33.5716649,29.8108802 33.5716649,29.1906648 L33.5716649,20.3719854 C33.1349989,20.6396063 32.6199334,20.7941176 32.0683562,20.7941176 C30.4906608,20.7941176 29.211686,19.5299805 29.211686,17.9705882 C29.211686,16.5470811 30.2774734,15.369614 31.6633696,15.1752148 L28.0406919,11.5945645 L29.0506774,10.5962961 L33.9541258,15.4428587 C34.6237878,16.1047518 35,17.0024715 35,17.9385297 L35,29.1906648 C35,30.3147161 34.3939248,31.3535725 33.4096504,31.9166383 L33.3032468,31.9775078 C32.3783494,32.5066063 31.2306712,32.4750971 30.3369155,31.8960679 C29.4556202,31.3251113 28.9246939,30.3536953 28.9246939,29.3121788 L28.9246939,23.8592601 C28.9246939,23.4694121 28.6049502,23.1533778 28.2105263,23.1533778 L27.0691834,23.1533778 L27.0691834,33.5 L13.5,33.5 L13.5,13.5 C13.5,11.290861 15.290861,9.5 17.5,9.5 L23.0691834,9.5 C25.2783224,9.5 27.0691834,11.290861 27.0691834,13.5 L27.0691834,21.7416131 Z M16.3566702,12.3235294 L16.3566702,18.6764706 L24.2125132,18.6764706 L24.2125132,12.3235294 L16.3566702,12.3235294 Z M32.0683562,19.3823529 C32.8572039,19.3823529 33.4966913,18.7502844 33.4966913,17.9705882 C33.4966913,17.1908921 32.8572039,16.5588235 32.0683562,16.5588235 C31.2795085,16.5588235 30.6400211,17.1908921 30.6400211,17.9705882 C30.6400211,18.7502844 31.2795085,19.3823529 32.0683562,19.3823529 Z" id="Combined-Shape" fill="#FFFFFF"></path>
                    </g>
                </g>
            </g>
        </g>
    </g>
</svg>