<?xml version="1.0" encoding="UTF-8"?>
<svg width="1680px" height="320px" viewBox="0 0 1680 320" version="1.1" xmlns="http://www.w3.org/2000/svg" xmlns:xlink="http://www.w3.org/1999/xlink">
    <!-- Generator: Sketch 55.1 (78136) - https://sketchapp.com -->
    <title>Group</title>
    <desc>Created with Sketch.</desc>
    <g id="Page-1" stroke="none" stroke-width="1" fill="none" fill-rule="evenodd">
        <g id="Artboard-Copy-17" transform="translate(0.000000, -90.000000)">
            <g id="Group-5" transform="translate(-194.000000, 90.000000)">
                <g id="Group" transform="translate(193.041522, 0.000000)">
                    <path d="M0.958477509,0 L1680.95848,0 L1680.95848,303.157895 C1660.29442,303.157895 1610.29442,303.157895 1530.95848,303.157895 C1411.95457,303.157895 1020.73362,318.947368 977.958478,318.947368 C911.065899,318.947368 902.405377,296.87463 821.438946,303.157895 C740.472516,309.441159 751.530095,318.947368 683.938946,318.947368 C616.347798,318.947368 614.899266,303.157895 549.579571,303.157895 C484.259876,303.157895 484.35575,318.947368 420.313946,318.947368 C356.272143,318.947368 357.854398,303.157895 292.681134,303.157895 C227.507869,303.157895 217.035205,320 155.31004,320 C123.67894,320 90.9584775,303.157895 48.9584775,303.157895 C30.7553525,303.157895 14.7553525,303.157895 0.958477509,303.157895 L0.958477509,0 Z" id="Rectangle" fill="#DA1E1D"></path>
                    <path d="M12.1198722,279 C42.7725103,278.989597 73.4092783,277.945726 104.055184,277.478969 C112.635075,277.347806 121.215929,277.264586 129.797263,277.26142 C131.344346,277.260968 131.346751,274.999548 129.797263,275 C99.1446252,275.010855 68.5073762,276.054274 37.8619518,276.521483 C29.2820601,276.652194 20.7012066,276.735866 12.1198722,276.73858 C10.572789,276.739032 10.5699036,279.000452 12.1198722,279" id="Fill-1271" fill="#000000"></path>
                    <path d="M130.957243,276.019841 C131.060085,268.824508 124.724264,257.934364 116.324399,258.852947 C116.725194,259.249619 117.125508,259.646291 117.525822,260.043439 C118.707541,250.936652 114.488626,240.176986 105.197306,236.898371 C97.2943493,234.109763 87.2783312,237.979814 84.74333,246.196113 C85.4752365,246.100874 86.207143,246.006111 86.9390495,245.911348 C83.7783475,238.512202 74.6475375,235.117871 67.0641594,237.231709 C58.1496053,239.717456 52.9032341,248.744718 52.2179427,257.438167 C52.8205762,257.095781 53.4232097,256.752919 54.0258431,256.410534 C50.1750441,254.394317 45.7749548,253.838119 41.5267253,254.81718 C39.2829488,255.333853 37.1102966,256.281961 35.2355971,257.61055 C33.3171659,258.970568 32.1340051,261.054881 30.2842952,262.420613 C28.0448439,264.073969 24.6914337,263.017764 22.041096,263.645868 C20.0058864,264.128255 18.117731,265.131125 16.4919663,266.421143 C12.9900603,269.199751 10.8909351,273.39552 10.9601371,277.850341 C10.9841655,279.380838 13.3870103,279.3856 13.3629818,277.850341 C13.2961827,273.545046 15.6322284,269.601661 19.3109837,267.341631 C21.1698245,266.199235 23.2343487,265.65637 25.4103649,265.669704 C27.5215043,265.682085 29.5398939,265.863516 31.3626919,264.612547 C32.8769647,263.573486 33.8323358,261.966798 35.1630312,260.732496 C36.7066187,259.302001 38.5683428,258.229606 40.5694319,257.561978 C44.6172642,256.210531 49.0308095,256.486249 52.8133677,258.466275 C53.6582079,258.908662 54.5491827,258.347702 54.6207875,257.438167 C55.223421,249.793304 59.8695616,241.730816 67.7028355,239.52793 C74.3543904,237.656953 82.1141373,240.675564 84.8644334,247.113268 C85.2931009,248.116615 86.7876703,247.711848 87.0601529,246.828979 C89.3000848,239.569359 98.6606069,236.5417 105.353971,239.513168 C113.095456,242.94988 116.136977,252.231431 115.122977,260.043439 C115.046566,260.635828 115.738105,261.297741 116.324399,261.233931 C123.391166,260.461064 128.64042,270.017857 128.554399,276.019841 C128.532292,277.552718 130.935137,277.553194 130.957243,276.019841" id="Fill-1273" fill="#000000"></path>
                    <path d="M677.91777,238.989092 C687.771394,222.320472 691.812129,207.211636 690.039976,193.662582 C688.267823,180.113529 691.893754,166.555699 700.91777,152.989092" id="Path-8" stroke="#000000" stroke-width="2" stroke-linecap="round" transform="translate(689.417770, 195.989092) rotate(-150.000000) translate(-689.417770, -195.989092) "></path>
                    <path d="M792.553024,126.869153 C793.881743,116.903755 793.964788,104.779188 789.978629,93.3189802 C789.978629,93.0698452 789.895584,92.8207103 789.729494,92.6546203 C787.404235,86.2601566 783.833301,80.1148279 778.435377,74.716904 C778.186242,74.4677691 777.771017,74.3016791 777.438837,74.3016791 L775.694892,74.3016791 C775.279667,74.3016791 774.947487,74.4677691 774.698352,74.716904 C769.300429,80.1148279 765.729494,86.2601566 763.404235,92.6546203 C763.32119,92.8207103 763.238145,92.9868002 763.238145,93.2359352 C759.251986,104.530053 759.335031,116.571575 760.66375,126.453928 C760.580705,126.453928 760.580705,126.453928 760.49766,126.536973 C746.961328,134.343202 746.380013,146.799949 746.380013,147.298219 C746.380013,147.713444 746.546103,148.045624 746.795238,148.294759 C747.044373,148.543894 747.459598,148.709984 747.791778,148.709984 L767.141259,148.709984 L785.411155,148.709984 L786.15856,148.709984 L804.843681,148.709984 C805.258906,148.709984 805.591086,148.543894 805.840221,148.294759 C806.089356,148.045624 806.255446,147.630399 806.255446,147.298219 C806.172401,146.799949 805.591086,134.675382 792.553024,126.869153 Z M778.020152,78.4539282 C781.840221,82.6061774 784.580705,87.2566964 786.573785,92.0733054 L778.020152,92.0733054 L778.020152,78.4539282 L778.020152,78.4539282 Z M775.196622,78.4539282 L775.196622,92.0733054 L766.726034,92.0733054 C768.636069,87.2566964 771.459598,82.6061774 775.196622,78.4539282 Z M749.369633,145.969499 C749.950948,142.81379 752.193162,135.007561 761.078975,129.526593 C762.32465,137.083686 764.15164,143.062925 765.148179,145.969499 L749.369633,145.969499 Z M785.16202,145.969499 L778.684512,145.969499 L778.684512,124.793029 C778.684512,124.045624 778.020152,123.381264 777.272747,123.381264 C776.525342,123.381264 775.860982,124.045624 775.860982,124.793029 L775.860982,145.969499 L768.137799,145.969499 C766.393854,141.069845 758.421536,116.65462 765.646449,94.8968348 L787.570325,94.8968348 C794.878283,116.65462 786.905965,141.069845 785.16202,145.969499 Z M788.15164,145.969499 C789.148179,143.14597 790.892124,137.332821 792.137799,129.941818 C800.608387,135.422786 802.684512,142.896835 803.265827,145.969499 C803.265827,145.969499 788.15164,145.969499 788.15164,145.969499 Z" id="Shape" fill="#231F20" fill-rule="nonzero" transform="translate(776.317730, 111.505831) rotate(-315.000000) translate(-776.317730, -111.505831) "></path>
                    <path d="M751.48392,137.02588 L735.207103,137.02588 C734.459699,137.02588 733.795339,137.690239 733.795339,138.437644 C733.795339,149.897852 742.348972,154.299236 742.681152,154.465326 C742.847242,154.548371 743.096377,154.631416 743.345512,154.631416 C743.594647,154.631416 743.760737,154.548371 744.009872,154.465326 C744.342051,154.299236 752.895685,149.814807 752.895685,138.437644 C752.895685,137.690239 752.231325,137.02588 751.48392,137.02588 Z M743.345512,151.558752 C741.684612,150.479167 737.200183,146.908232 736.701913,139.849409 L749.98911,139.849409 C749.49084,146.991277 745.089456,150.479167 743.345512,151.558752 Z" id="Shape" fill="#231F20" fill-rule="nonzero" transform="translate(743.345512, 145.828648) rotate(-315.000000) translate(-743.345512, -145.828648) "></path>
                </g>
            </g>
        </g>
    </g>
</svg>