<?xml version="1.0" encoding="UTF-8"?>
<svg width="23px" height="23px" viewBox="0 0 23 23" version="1.1" xmlns="http://www.w3.org/2000/svg" xmlns:xlink="http://www.w3.org/1999/xlink">
    <!-- Generator: Sketch 55.1 (78136) - https://sketchapp.com -->
    <title>Group</title>
    <desc>Created with Sketch.</desc>
    <g id="Page-1" stroke="none" stroke-width="1" fill="none" fill-rule="evenodd">
        <g id="Artboard-Copy-27" transform="translate(-563.000000, -782.000000)" stroke="#DA1E1D" stroke-width="2">
            <g id="-g-History" transform="translate(0.000000, 355.000000)">
                <g id="Group-11" transform="translate(317.000000, 289.000000)">
                    <g id="Group-8" transform="translate(247.000000, 139.000000)">
                        <g id="Group" transform="translate(0.468318, 0.441653)">
                            <ellipse id="Oval" cx="9.99741889" cy="10" rx="9.99741889" ry="10"></ellipse>
                            <path d="M11.3299606,6.57794518 L14.8356213,12.0046639 C15.1353044,12.4685696 15.0021757,13.0875806 14.53827,13.3872637 C14.3765686,13.4917228 14.188153,13.5472882 13.9956457,13.5472882 L6.98432438,13.5472882 C6.43203963,13.5472882 5.98432438,13.0995729 5.98432438,12.5472882 C5.98432438,12.3547809 6.03988974,12.1663653 6.14434883,12.0046639 L9.65000952,6.57794518 C9.94969262,6.1140395 10.5687036,5.9809108 11.0326093,6.2805939 C11.1516819,6.35751479 11.2530397,6.45887262 11.3299606,6.57794518 Z" id="Triangle" transform="translate(10.490081, 10.088641) rotate(-270.000000) translate(-10.490081, -10.088641) "></path>
                        </g>
                    </g>
                </g>
            </g>
        </g>
    </g>
</svg>