<?xml version="1.0" encoding="UTF-8"?>
<svg width="65px" height="64px" viewBox="0 0 65 64" version="1.1" xmlns="http://www.w3.org/2000/svg" xmlns:xlink="http://www.w3.org/1999/xlink">
    <!-- Generator: Sketch 53 (72520) - https://sketchapp.com -->
    <title>1189185</title>
    <desc>Created with Sketch.</desc>
    <g id="Page-1" stroke="none" stroke-width="1" fill="none" fill-rule="evenodd">
        <g id="Artboard-Copy-29" transform="translate(-443.000000, -324.000000)" fill="#FFFFFF" fill-rule="nonzero">
            <g id="-g-Group-3" transform="translate(294.132812, 266.000000)">
                <g id="Group-10" transform="translate(127.500000, 37.000000)">
                    <g id="1189185" transform="translate(21.367188, 21.000000)">
                        <path d="M63.6063645,48.9825809 C64.3060331,48.9825809 64.8734211,48.423922 64.8734211,47.7350175 L64.8734211,45.5534035 C64.8732943,42.2235322 62.9253216,39.3347992 60.093577,37.9285458 C61.5667836,36.7004444 62.5045322,34.8680234 62.5045322,32.8230175 L62.5045322,31.2680546 C62.5045322,27.579384 59.4566277,24.5783704 55.7103216,24.5783704 C51.9640156,24.5783704 48.9161111,27.579384 48.9161111,31.2680546 L48.9161111,32.8230175 C48.9161111,34.6006706 49.6252827,36.2172632 50.777924,37.4165458 C48.5503119,37.9058402 46.4439571,38.8395166 44.5623782,40.1910019 L33.0889279,48.4324055 C32.8517349,48.6028226 32.634308,48.7943236 32.4366472,49.0022924 C32.2389864,48.7943236 32.0214327,48.6028226 31.7843665,48.4324055 L20.3109162,40.1910019 C18.4293372,38.8395166 16.3229825,37.9058402 14.0953704,37.4165458 C15.2480117,36.2172632 15.9573099,34.6006706 15.9573099,32.8230175 L15.9573099,31.2680546 C15.9573099,27.579384 12.9094055,24.5783704 9.16309942,24.5783704 C5.41679337,24.5783704 2.36888889,27.579384 2.36888889,31.2680546 L2.36888889,32.8230175 C2.36888889,34.8680234 3.30663743,36.7004444 4.77984405,37.9285458 C1.94797271,39.3347992 0,42.2235322 0,45.5535283 L0,62.6250604 C0,63.3139649 0.567387914,63.8726238 1.26705653,63.8726238 L17.0590156,63.8726238 C17.7586842,63.8726238 18.3260721,63.3139649 18.3260721,62.6250604 L18.3260721,51.1695595 L26.6162963,56.0911969 C28.0793665,56.9597505 29.8407018,56.9843275 31.3282261,56.1573177 C31.7483821,55.9236491 32.118616,55.634963 32.4366472,55.3053567 C32.7546784,55.6350877 33.1249123,55.9237739 33.5450682,56.1573177 C34.2689376,56.5599064 35.0576803,56.7606394 35.8451559,56.7606394 C36.6760916,56.7606394 37.5058869,56.537076 38.2568713,56.0911969 L46.5472222,51.1695595 L46.5472222,62.6250604 C46.5472222,63.3139649 47.1146101,63.8726238 47.8142788,63.8726238 L63.6062378,63.8726238 C64.3059064,63.8726238 64.8732943,63.3139649 64.8732943,62.6250604 L64.8732943,58.117614 C64.8732943,57.4287096 64.3059064,56.8700507 63.6062378,56.8700507 C62.9065692,56.8700507 62.3391813,57.4287096 62.3391813,58.117614 L62.3391813,61.3774971 L49.0813353,61.3774971 L49.0813353,49.8643587 C49.0813353,49.7997349 49.0747466,49.7367329 49.0652437,49.674729 L50.4425341,48.857076 C51.0418519,48.501271 51.2346979,47.7346433 50.8733333,47.1445458 C50.5118421,46.5544483 49.7328558,46.3641949 49.1340448,46.7203743 L36.9483821,53.9544951 C36.2784893,54.3522183 35.4720078,54.3634464 34.7912183,53.9846862 C34.1103021,53.6060507 33.7037037,52.9202651 33.7037037,52.1501442 C33.7037037,51.4795789 34.0322515,50.8431969 34.5825341,50.4479688 L46.0559844,42.2065653 C48.5096394,40.4440078 51.4119591,39.5124522 54.449347,39.5124522 L56.2038402,39.5124522 C59.5868811,39.5124522 62.339308,42.2224094 62.339308,45.5534035 L62.339308,47.7350175 C62.339308,48.423922 62.9066959,48.9825809 63.6063645,48.9825809 Z M4.90287524,31.2680546 C4.90287524,28.9551969 6.81397661,27.0734971 9.16297271,27.0734971 C11.5119688,27.0734971 13.4230702,28.9551969 13.4230702,31.2680546 L13.4230702,32.8230175 C13.4230702,35.1358752 11.5119688,37.017575 9.16297271,37.017575 C6.81397661,37.017575 4.90287524,35.1358752 4.90287524,32.8230175 L4.90287524,31.2680546 Z M30.082076,53.9846862 C29.4009064,54.3633216 28.5945517,54.3519688 27.9247856,53.9544951 L15.7392495,46.7203743 C15.1400585,46.3643197 14.3611988,46.5545731 13.999961,47.1445458 C13.6385965,47.7345185 13.8314425,48.501271 14.4307602,48.857076 L15.8065302,49.6738558 C15.7969006,49.7359844 15.7918324,49.7996101 15.7918324,49.8643587 L15.7918324,61.3774971 L2.53411306,61.3774971 L2.53411306,45.5535283 C2.53411306,42.2225341 5.28653996,39.512577 8.6695809,39.512577 L10.4240741,39.512577 C13.461462,39.512577 16.3637817,40.4441326 18.8174366,42.2066901 L30.2908869,50.4480936 C30.8411696,50.8433216 31.1697173,51.4797037 31.1697173,52.150269 C31.1695906,52.9202651 30.7629922,53.6060507 30.082076,53.9846862 Z M59.9704191,32.8230175 C59.9704191,35.1358752 58.0593177,37.017575 55.7103216,37.017575 C53.3613255,37.017575 51.4502242,35.1358752 51.4502242,32.8230175 L51.4502242,31.2680546 C51.4502242,28.9551969 53.3613255,27.0734971 55.7103216,27.0734971 C58.0593177,27.0734971 59.9704191,28.9551969 59.9704191,31.2680546 L59.9704191,32.8230175 Z" id="Shape"></path>
                        <path d="M64.5019201,51.8911501 C64.2663743,51.6592281 63.9394737,51.5268616 63.6062378,51.5268616 C63.2730019,51.5268616 62.9461014,51.6592281 62.7104288,51.8911501 C62.4747563,52.1244444 62.3391813,52.4450682 62.3391813,52.7731774 C62.3391813,53.1025341 62.4746296,53.4231579 62.7104288,53.6564522 C62.9461014,53.888499 63.2730019,54.0219883 63.6062378,54.0219883 C63.9394737,54.0219883 64.2663743,53.8886238 64.5019201,53.6564522 C64.7375926,53.4231579 64.8732943,53.1025341 64.8732943,52.7731774 C64.8732943,52.4450682 64.7377193,52.1231969 64.5019201,51.8911501 Z" id="Path"></path>
                        <path d="M52.3350097,0.00274463938 L48.1537232,0.00274463938 C47.4540546,0.00274463938 46.8866667,0.561278752 46.8866667,1.25030799 C46.8866667,1.93933723 47.4540546,2.49787135 48.1537232,2.49787135 L49.2759552,2.49787135 L34.4691326,17.0770214 L24.7795712,7.53653021 C24.5418713,7.30261209 24.2196589,7.17111891 23.8836355,7.17111891 C23.5476121,7.17111891 23.2253996,7.30261209 22.9876998,7.53653021 L13.9589084,16.4264172 C13.4641228,16.9137154 13.4641228,17.7035478 13.9589084,18.190846 C14.4538207,18.6781442 15.2558674,18.6780195 15.7509064,18.190846 L23.8837622,10.1829864 L33.5733236,19.7234776 C33.8207797,19.9671267 34.1450195,20.0888889 34.4692593,20.0888889 C34.793499,20.0888889 35.1177388,19.9671267 35.3651949,19.7234776 L51.0679532,4.26230019 L51.0679532,5.36726706 C51.0679532,6.0562963 51.6353411,6.61483041 52.3350097,6.61483041 C53.0346784,6.61483041 53.6020663,6.0562963 53.6020663,5.36726706 L53.6020663,1.25030799 C53.6020663,0.561278752 53.0346784,0.00274463938 52.3350097,0.00274463938 Z" id="Path"></path>
                        <path d="M12.5526023,19.5756413 C12.3170565,19.3435945 11.9901559,19.2101053 11.6569201,19.2101053 C11.3236842,19.2101053 10.9967836,19.3435945 10.7611111,19.5756413 C10.5254386,19.8076881 10.3898635,20.1295595 10.3898635,20.4576686 C10.3898635,20.7857778 10.5253119,21.1076491 10.7611111,21.3396959 C10.9969103,21.5717427 11.3236842,21.705232 11.6569201,21.705232 C11.9901559,21.705232 12.3170565,21.5717427 12.5526023,21.3396959 C12.7882749,21.1076491 12.9239766,20.7857778 12.9239766,20.4576686 C12.9239766,20.1283119 12.7884016,19.8076881 12.5526023,19.5756413 Z" id="Path"></path>
                    </g>
                </g>
            </g>
        </g>
    </g>
</svg>